<svg xmlns="http://www.w3.org/2000/svg" viewBox="0 0 382.68 311.81"><defs><style>.cls-1,.cls-10,.cls-12,.cls-13,.cls-14,.cls-16,.cls-2,.cls-4,.cls-6,.cls-7,.cls-9{fill:none;}.cls-1{stroke:gray;stroke-width:0.25px;}.cls-1,.cls-10,.cls-6,.cls-7,.cls-9{stroke-linejoin:bevel;}.cls-2,.cls-8,.cls-9{stroke:#009fe3;}.cls-12,.cls-13,.cls-16,.cls-18,.cls-2,.cls-4,.cls-8{stroke-miterlimit:10;}.cls-13,.cls-2,.cls-4,.cls-8,.cls-9{stroke-width:0.5px;}.cls-3,.cls-8{fill:#009fe3;}.cls-4{stroke:#3aaa35;}.cls-5{fill:#3aaa35;}.cls-10,.cls-12,.cls-6,.cls-7{stroke:#000;}.cls-12,.cls-14,.cls-6,.cls-7{stroke-width:0.5px;}.cls-7{stroke-dasharray:7.5 4.5;}.cls-10{stroke-width:0.75px;}.cls-11{fill:#e52321;}.cls-13,.cls-16,.cls-18{stroke:#1d1d1b;}.cls-14{stroke:#e52321;stroke-linejoin:round;}.cls-15,.cls-18{fill:#fff;}.cls-17{fill:#1d1d1b;}.cls-19{fill:#262626;}</style></defs><g id="Plot"><line class="cls-1" x1="46.47" y1="226.63" x2="371.97" y2="226.63"/><line class="cls-1" x1="46.47" y1="184.38" x2="371.97" y2="184.38"/><line class="cls-1" x1="46.47" y1="142.13" x2="371.97" y2="142.13"/><line class="cls-1" x1="46.47" y1="99.88" x2="371.97" y2="99.88"/><line class="cls-1" x1="46.47" y1="99.88" x2="371.97" y2="99.88"/><path class="cls-2" d="M274.17,110a14,14,0,0,1-13.33,4.83,13.39,13.39,0,0,1-7.12-4.1"/><polygon class="cls-3" points="254.61 110.65 252.34 109 253.49 111.56 254.61 110.65"/><path class="cls-4" d="M250,100.64a47.14,47.14,0,0,0,10.47-23.93"/><polygon class="cls-5" points="261.13 77.27 260.67 74.5 259.69 77.13 261.13 77.27"/><path class="cls-2" d="M311.67,127.74c-4.13.1-23.79.42-40.93-4.6-14.47-4.25-18.59-9.8-19.78-12.88"/><polygon class="cls-3" points="251.82 110.56 250.48 108.1 250.41 110.91 251.82 110.56"/><polyline class="cls-6" points="46.47 268.88 47.16 268.45 47.85 268.02 48.55 267.6 49.24 267.17 49.94 266.74 50.63 266.32 51.33 265.89 52.02 265.46 52.72 265.04 53.41 264.61 54.11 264.18 54.8 263.76 55.49 263.33 56.19 262.9 56.88 262.48 57.58 262.05 58.27 261.62 58.97 261.2 59.66 260.77 60.36 260.34 61.05 259.92 61.75 259.49 62.44 259.06 63.14 258.63 63.83 258.21 64.53 257.78 65.22 257.36 65.91 256.93 66.61 256.5 67.3 256.07 68 255.65 68.69 255.22 69.39 254.79 70.08 254.37 70.78 253.94 71.47 253.51 72.17 253.09 72.86 252.66 73.56 252.23 74.25 251.81 74.94 251.38 75.64 250.95 76.33 250.53 77.03 250.1 77.72 249.67 78.42 249.25 79.11 248.82 79.81 248.39 80.5 247.97 81.2 247.54 81.89 247.11 82.58 246.69 83.28 246.26 83.97 245.83 84.67 245.41 85.36 244.98 86.06 244.55 86.75 244.13 87.45 243.7 88.14 243.27 88.84 242.84 89.53 242.42 90.23 241.99 90.92 241.56 91.61 241.14 92.31 240.71 93 240.28 93.7 239.86 94.39 239.43 95.09 239 95.78 238.58 96.48 238.15 97.17 237.72 97.87 237.3 98.56 236.87 99.26 236.44 99.95 236.02 100.65 235.59 101.34 235.16 102.03 234.74 102.73 234.31 103.42 233.88 104.12 233.46 104.81 233.03 105.51 232.6 106.2 232.18 106.9 231.75 107.59 231.32 108.29 230.9 108.98 230.47 109.68 230.04 110.37 229.62 111.06 229.19 111.76 228.76 112.45 228.34 113.15 227.91 113.84 227.48 114.54 227.05 115.23 226.63"/><polyline class="cls-6" points="115.23 219.13 115.13 219.2 115.03 219.28 114.93 219.35 114.83 219.43 114.73 219.5 114.63 219.58 114.53 219.66 114.43 219.73 114.33 219.81 114.23 219.88 114.13 219.96 114.03 220.03 113.92 220.11 113.83 220.19 113.72 220.26 113.62 220.34 113.52 220.41 113.42 220.49 113.32 220.56 113.22 220.64 113.12 220.72 113.02 220.79 112.92 220.87 112.82 220.94 112.72 221.02 112.62 221.09 112.52 221.17 112.42 221.25 112.32 221.32 112.22 221.4 112.11 221.47 112.02 221.55 111.91 221.63 111.81 221.7 111.71 221.78 111.61 221.85 111.51 221.93 111.41 222 111.31 222.08 111.21 222.16 111.11 222.23 111.01 222.31 110.91 222.38 110.81 222.46 110.71 222.53 110.61 222.61 110.51 222.69 110.41 222.76 110.31 222.84 110.2 222.91 110.1 222.99 110 223.07 109.9 223.14 109.8 223.22 109.7 223.29 109.6 223.37 109.5 223.44 109.4 223.52 109.3 223.6 109.2 223.67 109.1 223.75 109 223.82 108.9 223.9 108.8 223.97 108.7 224.05 108.6 224.13 108.5 224.2 108.39 224.28 108.29 224.35 108.19 224.43 108.09 224.51 107.99 224.58 107.89 224.66 107.79 224.73 107.69 224.81 107.59 224.88 107.49 224.96 107.39 225.04 107.29 225.11 107.19 225.19 107.09 225.26 106.99 225.34 106.89 225.41 106.79 225.49 106.69 225.57 106.58 225.64 106.48 225.72 106.38 225.79 106.28 225.87 106.18 225.95 106.08 226.02 105.98 226.1 105.88 226.17 105.78 226.25 105.68 226.32 105.58 226.4 105.48 226.48 105.38 226.55 105.28 226.63"/><polyline class="cls-6" points="105.28 226.67 105.84 226.24 106.4 225.81 106.96 225.39 107.52 224.96 108.09 224.53 108.65 224.1 109.21 223.68 109.77 223.25 110.33 222.82 110.89 222.4 111.46 221.97 112.02 221.54 112.58 221.11 113.14 220.69 113.7 220.26 114.27 219.83 114.83 219.41 115.39 218.98 115.95 218.55 116.51 218.12 117.07 217.7 117.64 217.27 118.2 216.84 118.76 216.42 119.32 215.99 119.88 215.56 120.44 215.13 121 214.71 121.57 214.28 122.13 213.85 122.69 213.43 123.25 213 123.81 212.57 124.38 212.14 124.94 211.72 125.5 211.29 126.06 210.86 126.62 210.44 127.18 210.01 127.75 209.58 128.31 209.15 128.87 208.73 129.43 208.3 129.99 207.87 130.55 207.44 131.12 207.02 131.68 206.59 132.24 206.16 132.8 205.74 133.36 205.31 133.92 204.88 134.49 204.46 135.05 204.03 135.61 203.6 136.17 203.17 136.73 202.75 137.29 202.32 137.86 201.89 138.42 201.46 138.98 201.04 139.54 200.61 140.1 200.18 140.66 199.76 141.23 199.33 141.79 198.9 142.35 198.47 142.91 198.05 143.47 197.62 144.03 197.19 144.6 196.77 145.16 196.34 145.72 195.91 146.28 195.48 146.84 195.06 147.41 194.63 147.97 194.2 148.53 193.78 149.09 193.35 149.65 192.92 150.21 192.49 150.78 192.07 151.34 191.64 151.9 191.21 152.46 190.78 153.02 190.36 153.58 189.93 154.15 189.5 154.71 189.08 155.27 188.65 155.83 188.22 156.39 187.79 156.95 187.37 157.51 186.94 158.08 186.51 158.64 186.09 159.2 185.66 159.76 185.23 160.32 184.81 160.88 184.38"/><polyline class="cls-7" points="160.88 186.69 160.92 186.67 160.96 186.64 160.99 186.62 161.03 186.6 161.06 186.57 161.1 186.55 161.14 186.53 161.17 186.5 161.21 186.48 161.24 186.46 161.28 186.43 161.32 186.41 161.35 186.39 161.39 186.36 161.42 186.34 161.46 186.32 161.5 186.29 161.53 186.27 161.57 186.25 161.6 186.22 161.64 186.2 161.67 186.18 161.71 186.15 161.75 186.13 161.78 186.11 161.82 186.08 161.85 186.06 161.89 186.04 161.93 186.01 161.96 185.99 162 185.97 162.03 185.94 162.07 185.92 162.1 185.9 162.14 185.87 162.18 185.85 162.21 185.83 162.25 185.8 162.28 185.78 162.32 185.76 162.35 185.73 162.39 185.71 162.43 185.69 162.46 185.66 162.5 185.64 162.53 185.62 162.57 185.59 162.61 185.57 162.64 185.55 162.68 185.52 162.71 185.5 162.75 185.48 162.79 185.45 162.82 185.43 162.86 185.41 162.89 185.38 162.93 185.36 162.97 185.34 163 185.31 163.04 185.29 163.07 185.27 163.11 185.24 163.14 185.22 163.18 185.19 163.22 185.17 163.25 185.15 163.29 185.13 163.32 185.1 163.36 185.08 163.4 185.06 163.43 185.03 163.47 185.01 163.5 184.99 163.54 184.96 163.57 184.94 163.61 184.91 163.65 184.89 163.68 184.87 163.72 184.84 163.75 184.82 163.79 184.8 163.83 184.78 163.86 184.75 163.9 184.73 163.93 184.71 163.97 184.68 164 184.66 164.04 184.63 164.08 184.61 164.11 184.59 164.15 184.56 164.18 184.54 164.22 184.52 164.26 184.49 164.29 184.47 164.33 184.45 164.36 184.42 164.4 184.4 164.44 184.38"/><polyline class="cls-6" points="164.44 184.4 165.1 183.97 165.77 183.54 166.44 183.12 167.1 182.69 167.77 182.26 168.44 181.84 169.1 181.41 169.77 180.98 170.44 180.56 171.1 180.13 171.77 179.7 172.44 179.27 173.1 178.85 173.77 178.42 174.44 177.99 175.1 177.57 175.77 177.14 176.43 176.71 177.1 176.28 177.77 175.86 178.43 175.43 179.1 175 179.77 174.58 180.43 174.15 181.1 173.72 181.77 173.3 182.43 172.87 183.1 172.44 183.77 172.01 184.43 171.59 185.1 171.16 185.77 170.73 186.43 170.31 187.1 169.88 187.77 169.45 188.43 169.03 189.1 168.6 189.77 168.17 190.43 167.75 191.1 167.32 191.77 166.89 192.43 166.47 193.1 166.04 193.77 165.61 194.43 165.18 195.1 164.76 195.77 164.33 196.43 163.9 197.1 163.48 197.77 163.05 198.43 162.62 199.1 162.19 199.77 161.77 200.43 161.34 201.1 160.91 201.77 160.49 202.43 160.06 203.1 159.63 203.77 159.21 204.43 158.78 205.1 158.35 205.77 157.93 206.43 157.5 207.1 157.07 207.76 156.64 208.43 156.22 209.1 155.79 209.76 155.36 210.43 154.94 211.1 154.51 211.76 154.08 212.43 153.66 213.1 153.23 213.76 152.8 214.43 152.38 215.1 151.95 215.76 151.52 216.43 151.09 217.1 150.67 217.76 150.24 218.43 149.81 219.1 149.39 219.76 148.96 220.43 148.53 221.1 148.1 221.76 147.68 222.43 147.25 223.1 146.82 223.76 146.4 224.43 145.97 225.1 145.54 225.76 145.12 226.43 144.69 227.1 144.26 227.76 143.84 228.43 143.41 229.1 142.98 229.76 142.56 230.43 142.13"/><polyline class="cls-6" points="230.43 149.21 230.59 149.14 230.76 149.07 230.92 149 231.09 148.93 231.25 148.85 231.42 148.78 231.58 148.71 231.75 148.64 231.91 148.57 232.08 148.5 232.24 148.43 232.41 148.35 232.57 148.28 232.74 148.21 232.9 148.14 233.06 148.07 233.23 148 233.39 147.92 233.56 147.85 233.72 147.78 233.89 147.71 234.05 147.64 234.22 147.57 234.38 147.49 234.55 147.42 234.71 147.35 234.88 147.28 235.04 147.21 235.21 147.14 235.37 147.06 235.53 146.99 235.7 146.92 235.86 146.85 236.03 146.78 236.19 146.71 236.36 146.64 236.52 146.56 236.69 146.49 236.85 146.42 237.02 146.35 237.18 146.28 237.34 146.21 237.51 146.13 237.67 146.06 237.84 145.99 238 145.92 238.17 145.85 238.33 145.78 238.5 145.71 238.66 145.63 238.83 145.56 238.99 145.49 239.16 145.42 239.32 145.35 239.49 145.28 239.65 145.21 239.81 145.13 239.98 145.06 240.14 144.99 240.31 144.92 240.47 144.85 240.64 144.78 240.8 144.7 240.97 144.63 241.13 144.56 241.3 144.49 241.46 144.42 241.63 144.35 241.79 144.27 241.96 144.2 242.12 144.13 242.28 144.06 242.45 143.99 242.61 143.92 242.78 143.84 242.94 143.77 243.11 143.7 243.27 143.63 243.44 143.56 243.6 143.49 243.77 143.42 243.93 143.34 244.09 143.27 244.26 143.2 244.42 143.13 244.59 143.06 244.75 142.99 244.92 142.91 245.08 142.84 245.25 142.77 245.41 142.7 245.58 142.63 245.74 142.56 245.91 142.49 246.07 142.41 246.24 142.34 246.4 142.27 246.56 142.2 246.73 142.13"/><polyline class="cls-6" points="246.73 142.41 247.8 141.98 248.86 141.55 249.93 141.12 251 140.69 252.06 140.26 253.13 139.83 254.2 139.4 255.27 138.97 256.33 138.54 257.4 138.11 258.47 137.68 259.53 137.25 260.6 136.82 261.67 136.39 262.74 135.96 263.8 135.53 264.87 135.1 265.94 134.68 267 134.25 268.07 133.82 269.14 133.39 270.2 132.96 271.27 132.53 272.34 132.1 273.41 131.67 274.47 131.24 275.54 130.81 276.61 130.38 277.68 129.95 278.74 129.52 279.81 129.09 280.88 128.66 281.94 128.23 283.01 127.8 284.08 127.37 285.14 126.94 286.21 126.51 287.28 126.08 288.35 125.65 289.41 125.22 290.48 124.79 291.55 124.36 292.61 123.94 293.68 123.5 294.75 123.08 295.82 122.65 296.88 122.22 297.95 121.79 299.02 121.36 300.08 120.93 301.15 120.5 302.22 120.07 303.29 119.64 304.35 119.21 305.42 118.78 306.49 118.35 307.55 117.92 308.62 117.49 309.69 117.06 310.75 116.63 311.82 116.2 312.89 115.77 313.96 115.34 315.02 114.91 316.09 114.48 317.16 114.05 318.23 113.63 319.29 113.19 320.36 112.77 321.43 112.34 322.49 111.91 323.56 111.48 324.63 111.05 325.69 110.62 326.76 110.19 327.83 109.76 328.9 109.33 329.96 108.9 331.03 108.47 332.1 108.04 333.16 107.61 334.23 107.18 335.3 106.75 336.37 106.32 337.43 105.89 338.5 105.46 339.57 105.03 340.63 104.6 341.7 104.17 342.77 103.74 343.83 103.31 344.9 102.89 345.97 102.45 347.04 102.03 348.1 101.6 349.17 101.17 350.24 100.74 351.31 100.31 352.37 99.88"/><polyline class="cls-8" points="381 69.78 380.32 70.31 379.63 70.83 378.94 71.36 378.26 71.88 377.57 72.41 376.88 72.93 376.19 73.46 375.51 73.98 374.82 74.51 374.13 75.03 373.45 75.56 372.76 76.08 372.07 76.61 371.38 77.13 370.7 77.66 370.01 78.18 369.32 78.71 368.63 79.23 367.95 79.76 367.26 80.28 366.57 80.81 365.89 81.33 365.2 81.86 364.51 82.38 363.82 82.91 363.14 83.43 362.45 83.95 361.76 84.48 361.08 85 360.39 85.53 359.7 86.06 359.01 86.58 358.33 87.11 357.64 87.63 356.95 88.15 356.27 88.68 355.58 89.2 354.89 89.73 354.2 90.25 353.52 90.78 352.83 91.3 352.14 91.83 351.46 92.35 350.77 92.88 350.08 93.4 349.39 93.93 348.71 94.45 348.02 94.98 347.33 95.5 346.64 96.03 345.96 96.55 345.27 97.08 344.58 97.6 343.9 98.13 343.21 98.65 342.52 99.18 341.83 99.7 341.15 100.23 340.46 100.75 339.77 101.28 339.09 101.8 338.4 102.33 337.71 102.85 337.02 103.38 336.34 103.9 335.65 104.43 334.96 104.95 334.28 105.48 333.59 106 332.9 106.53 332.21 107.05 331.53 107.58 330.84 108.1 330.15 108.63 329.47 109.15 328.78 109.67 328.09 110.2 327.4 110.72 326.72 111.25 326.03 111.78 325.34 112.3 324.65 112.83 323.97 113.35 323.28 113.88 322.59 114.4 321.91 114.92 321.22 115.45 320.53 115.97 319.85 116.5 319.16 117.02 318.47 117.55 317.78 118.07 317.1 118.6 316.41 119.12 315.72 119.65 315.04 120.17 314.35 120.7 313.66 121.22 312.97 121.75"/><polyline class="cls-9" points="341.61 44.36 340.79 44.92 339.98 45.48 339.17 46.04 338.36 46.6 337.55 47.16 336.73 47.72 335.92 48.28 335.11 48.85 334.3 49.41 333.49 49.97 332.67 50.53 331.86 51.09 331.05 51.65 330.24 52.21 329.42 52.77 328.61 53.33 327.8 53.89 326.99 54.45 326.18 55.02 325.36 55.58 324.55 56.14 323.74 56.7 322.93 57.26 322.12 57.82 321.3 58.38 320.49 58.94 319.68 59.5 318.87 60.06 318.05 60.62 317.24 61.18 316.43 61.74 315.62 62.3 314.81 62.87 313.99 63.43 313.18 63.99 312.37 64.55 311.56 65.11 310.74 65.67 309.93 66.23 309.12 66.79 308.31 67.35 307.5 67.91 306.68 68.47 305.87 69.03 305.06 69.59 304.25 70.16 303.44 70.72 302.62 71.28 301.81 71.84 301 72.4 300.19 72.96 299.37 73.52 298.56 74.08 297.75 74.64 296.94 75.2 296.13 75.76 295.31 76.33 294.5 76.89 293.69 77.45 292.88 78.01 292.06 78.57 291.25 79.13 290.44 79.69 289.63 80.25 288.82 80.81 288 81.37 287.19 81.93 286.38 82.49 285.57 83.05 284.76 83.61 283.94 84.18 283.13 84.74 282.32 85.3 281.51 85.86 280.69 86.42 279.88 86.98 279.07 87.54 278.26 88.1 277.45 88.66 276.63 89.22 275.82 89.78 275.01 90.34 274.2 90.91 273.39 91.47 272.57 92.03 271.76 92.59 270.95 93.15 270.14 93.71 269.32 94.27 268.51 94.83 267.7 95.39 266.89 95.95 266.08 96.51 265.26 97.07 264.45 97.63 263.64 98.19 262.83 98.76 262.01 99.32 261.2 99.88"/><polyline class="cls-6" points="261.2 73.17 260.11 73.44 259.02 73.71 257.92 73.98 256.83 74.25 255.74 74.52 254.65 74.79 253.55 75.06 252.46 75.33 251.37 75.6 250.27 75.87 249.18 76.14 248.09 76.41 246.99 76.68 245.9 76.95 244.81 77.22 243.72 77.48 242.62 77.75 241.53 78.03 240.44 78.3 239.34 78.56 238.25 78.83 237.16 79.1 236.06 79.37 234.97 79.64 233.88 79.91 232.79 80.18 231.69 80.45 230.6 80.72 229.51 80.99 228.41 81.26 227.32 81.53 226.23 81.8 225.13 82.07 224.04 82.34 222.95 82.61 221.86 82.88 220.76 83.15 219.67 83.42 218.58 83.69 217.48 83.96 216.39 84.23 215.3 84.5 214.21 84.77 213.11 85.04 212.02 85.31 210.93 85.58 209.83 85.85 208.74 86.12 207.65 86.39 206.55 86.66 205.46 86.93 204.37 87.2 203.28 87.47 202.18 87.74 201.09 88.01 200 88.28 198.9 88.55 197.81 88.82 196.72 89.09 195.62 89.36 194.53 89.63 193.44 89.9 192.34 90.17 191.25 90.44 190.16 90.7 189.07 90.97 187.97 91.24 186.88 91.51 185.79 91.78 184.69 92.05 183.6 92.32 182.51 92.59 181.41 92.86 180.32 93.13 179.23 93.4 178.14 93.67 177.04 93.94 175.95 94.21 174.86 94.48 173.76 94.75 172.67 95.02 171.58 95.29 170.49 95.56 169.39 95.83 168.3 96.1 167.21 96.37 166.11 96.64 165.02 96.91 163.93 97.18 162.83 97.45 161.74 97.72 160.65 97.99 159.56 98.26 158.46 98.53 157.37 98.8 156.28 99.07 155.18 99.34 154.09 99.61 153 99.88"/><polyline class="cls-6" points="153 132.28 153.34 131.96 153.68 131.63 154.02 131.3 154.36 130.98 154.7 130.65 155.04 130.32 155.38 129.99 155.72 129.67 156.06 129.34 156.4 129.01 156.74 128.68 157.08 128.36 157.42 128.03 157.76 127.7 158.1 127.38 158.44 127.05 158.78 126.72 159.12 126.39 159.46 126.07 159.8 125.74 160.14 125.41 160.49 125.08 160.82 124.76 161.16 124.43 161.51 124.1 161.85 123.77 162.19 123.45 162.53 123.12 162.87 122.79 163.21 122.47 163.55 122.14 163.89 121.81 164.23 121.48 164.57 121.16 164.91 120.83 165.25 120.5 165.59 120.17 165.93 119.85 166.27 119.52 166.61 119.19 166.95 118.86 167.29 118.54 167.63 118.21 167.97 117.88 168.31 117.55 168.65 117.23 168.99 116.9 169.33 116.57 169.67 116.25 170.01 115.92 170.35 115.59 170.69 115.26 171.03 114.94 171.38 114.61 171.72 114.28 172.06 113.95 172.4 113.63 172.74 113.3 173.08 112.97 173.42 112.64 173.76 112.32 174.1 111.99 174.44 111.66 174.78 111.33 175.12 111.01 175.46 110.68 175.8 110.35 176.14 110.03 176.48 109.7 176.82 109.37 177.16 109.04 177.5 108.72 177.84 108.39 178.18 108.06 178.52 107.73 178.86 107.41 179.2 107.08 179.54 106.75 179.88 106.42 180.22 106.1 180.56 105.77 180.9 105.44 181.24 105.11 181.59 104.79 181.93 104.46 182.26 104.13 182.61 103.81 182.95 103.48 183.29 103.15 183.63 102.82 183.97 102.5 184.31 102.17 184.65 101.84 184.99 101.51 185.33 101.19 185.67 100.86 186.01 100.53 186.35 100.2 186.69 99.88"/><polyline class="cls-7" points="186.69 104.67 186.76 104.62 186.83 104.57 186.9 104.53 186.97 104.48 187.05 104.43 187.12 104.38 187.19 104.33 187.26 104.28 187.33 104.23 187.4 104.19 187.47 104.14 187.55 104.09 187.62 104.04 187.69 103.99 187.76 103.94 187.83 103.9 187.9 103.85 187.97 103.8 188.05 103.75 188.12 103.7 188.19 103.65 188.26 103.61 188.33 103.56 188.4 103.51 188.47 103.46 188.55 103.41 188.62 103.36 188.69 103.31 188.76 103.27 188.83 103.22 188.9 103.17 188.97 103.12 189.05 103.07 189.12 103.02 189.19 102.98 189.26 102.93 189.33 102.88 189.4 102.83 189.47 102.78 189.55 102.73 189.62 102.69 189.69 102.64 189.76 102.59 189.83 102.54 189.9 102.49 189.97 102.44 190.05 102.39 190.12 102.35 190.19 102.3 190.26 102.25 190.33 102.2 190.4 102.15 190.47 102.11 190.55 102.06 190.62 102.01 190.69 101.96 190.76 101.91 190.83 101.86 190.9 101.81 190.97 101.77 191.05 101.72 191.12 101.67 191.19 101.62 191.26 101.57 191.33 101.52 191.4 101.47 191.47 101.43 191.55 101.38 191.62 101.33 191.69 101.28 191.76 101.23 191.83 101.19 191.9 101.14 191.97 101.09 192.05 101.04 192.12 100.99 192.19 100.94 192.26 100.89 192.33 100.85 192.4 100.8 192.47 100.75 192.55 100.7 192.62 100.65 192.69 100.6 192.76 100.56 192.83 100.51 192.9 100.46 192.98 100.41 193.05 100.36 193.12 100.31 193.19 100.27 193.26 100.22 193.33 100.17 193.4 100.12 193.48 100.07 193.55 100.02 193.62 99.97 193.69 99.93 193.76 99.88"/><path class="cls-10" d="M341.4,93.44a35.66,35.66,0,0,0,4-44.87"/><polygon points="346.66 48.55 343.39 45.89 344.89 49.82 346.66 48.55"/><path class="cls-11" d="M66.63,158.18a.22.22,0,0,1,0-.09l.73-2.91a2.33,2.33,0,0,0,.07-.47c0-.28-.1-.42-.29-.42a.49.49,0,0,0-.45.36,7.71,7.71,0,0,0-.28.93.05.05,0,0,1,0,0l-.06,0h-.11a.07.07,0,0,1-.06,0,.1.1,0,0,1,0-.07c.07-.28.13-.52.2-.71a1.62,1.62,0,0,1,.31-.54.63.63,0,0,1,.52-.25,1,1,0,0,1,.59.2.8.8,0,0,1,.31.52,2,2,0,0,1,.56-.53,1.32,1.32,0,0,1,.7-.19.84.84,0,0,1,.54.18.59.59,0,0,1,.24.5.66.66,0,0,1-.15.43.52.52,0,0,1-.41.18.36.36,0,0,1-.27-.1.34.34,0,0,1-.11-.25.52.52,0,0,1,.16-.38.44.44,0,0,1,.36-.17.57.57,0,0,0-.38-.13,1,1,0,0,0-.73.3,3.19,3.19,0,0,0-.56.75l-.69,2.79a.37.37,0,0,1-.15.22.39.39,0,0,1-.26.1.28.28,0,0,1-.2-.08A.23.23,0,0,1,66.63,158.18Z"/><path class="cls-11" d="M73.69,160.76a4.55,4.55,0,0,1-.93-1,6,6,0,0,1-.65-1.19,6.83,6.83,0,0,1-.37-1.31,7.84,7.84,0,0,1-.12-1.37,8,8,0,0,1,.12-1.39,7.15,7.15,0,0,1,.37-1.32,6,6,0,0,1,.65-1.19,5.29,5.29,0,0,1,.93-1s0,0,0,0h.09l0,0a.14.14,0,0,1,0,.06s0,.06,0,.07a4.9,4.9,0,0,0-.8,1,5.83,5.83,0,0,0-.51,1.14,7.32,7.32,0,0,0-.28,1.25,9.77,9.77,0,0,0-.09,1.35,6.28,6.28,0,0,0,1.67,4.71.13.13,0,0,1,0,.08.17.17,0,0,1,0,.05s0,0,0,0h-.09S73.69,160.77,73.69,160.76Z"/><path class="cls-11" d="M75.59,157.28a3,3,0,0,1,.08-.65,6.57,6.57,0,0,1,.25-.75l.26-.71a1.76,1.76,0,0,0,.13-.59c0-.19-.07-.29-.21-.29a.74.74,0,0,0-.64.4,3.09,3.09,0,0,0-.37.89.08.08,0,0,1-.08.06H74.9c-.06,0-.09,0-.09-.1v0a3.44,3.44,0,0,1,.49-1,1,1,0,0,1,.81-.45.85.85,0,0,1,.6.23.75.75,0,0,1,.24.58,1,1,0,0,1-.09.39c0,.07-.09.25-.19.51a6.76,6.76,0,0,0-.23.66c0,.18-.1.35-.13.52a2.21,2.21,0,0,0,0,.51,1,1,0,0,0,.13.54.48.48,0,0,0,.45.22,1.3,1.3,0,0,0,1.09-.76s0-.06,0-.08v-.07l.71-2.83a.4.4,0,0,1,.15-.22.41.41,0,0,1,.26-.09.29.29,0,0,1,.2.07.26.26,0,0,1,.09.21v.07l-.71,2.81a2.58,2.58,0,0,0-.06.48c0,.27.09.41.28.41s.36-.13.46-.39a4.5,4.5,0,0,0,.26-.89.1.1,0,0,1,.09-.06h.11a.07.07,0,0,1,.06,0,.09.09,0,0,1,0,.06c-.07.28-.14.52-.2.72a1.62,1.62,0,0,1-.31.54.66.66,0,0,1-.53.24,1,1,0,0,1-.55-.17,1,1,0,0,1-.34-.45,1.82,1.82,0,0,1-.51.45,1.35,1.35,0,0,1-1.52-.14A1.11,1.11,0,0,1,75.59,157.28Z"/><path class="cls-11" d="M81.24,160.1a.1.1,0,0,1,.05-.08,2.6,2.6,0,0,0,.54-.78,2.25,2.25,0,0,0,.2-.93v-.12a.54.54,0,0,1-.39.15.55.55,0,0,1-.54-.54.49.49,0,0,1,.16-.37.52.52,0,0,1,.38-.15.5.5,0,0,1,.49.31,1.66,1.66,0,0,1,.15.72,2.52,2.52,0,0,1-.21,1,3,3,0,0,1-.62.89h-.06a.16.16,0,0,1-.1,0A.14.14,0,0,1,81.24,160.1Z"/><path class="cls-11" d="M85.67,160a.72.72,0,0,0,.44.14c.23,0,.42-.26.57-.77.06-.25.22-1.06.49-2.45l.45-2.38h-.83c-.07,0-.11-.05-.11-.13s.08-.22.13-.22h.87l.12-.64c0-.19.07-.36.1-.5s.07-.27.1-.39a2.57,2.57,0,0,1,.17-.41,1.5,1.5,0,0,1,.45-.52.93.93,0,0,1,.6-.22,1.07,1.07,0,0,1,.43.09.7.7,0,0,1,.32.24.52.52,0,0,1,.13.37.6.6,0,0,1-.16.42.52.52,0,0,1-.4.18.39.39,0,0,1-.26-.09.3.3,0,0,1-.11-.26.52.52,0,0,1,.14-.37.57.57,0,0,1,.36-.18.73.73,0,0,0-.45-.14.4.4,0,0,0-.28.14.75.75,0,0,0-.17.3c0,.16-.13.6-.27,1.33l-.12.65h1q.09,0,.09.12a.64.64,0,0,0,0,.09.3.3,0,0,1,0,.1.08.08,0,0,1-.07,0h-1l-.44,2.38q-.11.51-.21,1a8.78,8.78,0,0,1-.31,1.1,2.88,2.88,0,0,1-.52.95.93.93,0,0,1-.73.38,1.07,1.07,0,0,1-.6-.19.6.6,0,0,1-.26-.5.65.65,0,0,1,.16-.43.53.53,0,0,1,.4-.18.45.45,0,0,1,.28.09.33.33,0,0,1,.11.26.52.52,0,0,1-.16.38A.48.48,0,0,1,85.67,160Z"/><path class="cls-11" d="M91.1,160.1a.1.1,0,0,1,.05-.08,2.43,2.43,0,0,0,.54-.78,2.25,2.25,0,0,0,.2-.93v-.12a.53.53,0,0,1-.39.15.51.51,0,0,1-.38-.16.49.49,0,0,1-.16-.38.49.49,0,0,1,.16-.37.54.54,0,0,1,.38-.15.5.5,0,0,1,.49.31,1.66,1.66,0,0,1,.16.72,2.53,2.53,0,0,1-.22,1,3,3,0,0,1-.62.89h-.06a.12.12,0,0,1-.09,0A.12.12,0,0,1,91.1,160.1Z"/><path class="cls-11" d="M95.07,158.45c-.06,0-.09,0-.09-.08a.08.08,0,0,1,0-.07,4.76,4.76,0,0,1,.62-.87c.25-.27.53-.55.84-.83l1-.85a9.07,9.07,0,0,0,.76-.75h0a2,2,0,0,1-.63-.14,2.31,2.31,0,0,0-.65-.14,1.25,1.25,0,0,0-.5.11.51.51,0,0,0-.31.35.08.08,0,0,1-.08.07h-.12s-.08,0-.08-.09v0a1.86,1.86,0,0,1,.26-.53,1.49,1.49,0,0,1,.43-.4A.92.92,0,0,1,97,154a.55.55,0,0,1,.32.09,3,3,0,0,1,.3.27,1.35,1.35,0,0,0,.28.27.4.4,0,0,0,.27.09.5.5,0,0,0,.38-.2,2.69,2.69,0,0,0,.34-.48.07.07,0,0,1,.07,0h.11a.08.08,0,0,1,.06,0,.15.15,0,0,1,0,.07.13.13,0,0,1,0,.06,5.24,5.24,0,0,1-.61.85,11.48,11.48,0,0,1-.92.9c-.38.33-.69.62-.95.85s-.5.48-.73.72h.21a2.22,2.22,0,0,1,.65.13,2.2,2.2,0,0,0,.63.14,1.24,1.24,0,0,0,.49-.11,1.3,1.3,0,0,0,.43-.29,1,1,0,0,0,.24-.43c0-.05,0-.08.08-.08h.12a.09.09,0,0,1,.06,0,.19.19,0,0,1,0,.07v0a2.36,2.36,0,0,1-.31.71,2,2,0,0,1-.56.55,1.19,1.19,0,0,1-.7.22.56.56,0,0,1-.3-.08,2.18,2.18,0,0,1-.31-.27,2.35,2.35,0,0,0-.29-.28.39.39,0,0,0-.26-.09c-.33,0-.62.23-.88.7l-.06,0Z"/><path class="cls-11" d="M99.58,159.84v-.17a.09.09,0,0,1,0,0l1-1.16A4.32,4.32,0,0,0,101,158a2.77,2.77,0,0,0,.3-.4,2.82,2.82,0,0,0,.23-.46,1.64,1.64,0,0,0,.08-.5,1.4,1.4,0,0,0-.11-.53.88.88,0,0,0-.3-.4.82.82,0,0,0-.5-.15.87.87,0,0,0-.52.17.9.9,0,0,0-.33.46h.07a.35.35,0,0,1,.26.1.31.31,0,0,1,.11.26.35.35,0,0,1-.11.27.36.36,0,0,1-.52,0,.38.38,0,0,1-.1-.27,1.27,1.27,0,0,1,.09-.47,1,1,0,0,1,.28-.39,1.18,1.18,0,0,1,.4-.27,1.12,1.12,0,0,1,.48-.1,1.59,1.59,0,0,1,.72.17,1.32,1.32,0,0,1,.53.46,1.25,1.25,0,0,1,.19.7,1.17,1.17,0,0,1-.13.55,1.58,1.58,0,0,1-.33.48,6.15,6.15,0,0,1-.51.5,5.06,5.06,0,0,0-.41.37l-.77.72h1.45l.34,0a1.63,1.63,0,0,0,.16-.62h.2l-.2,1.2Z"/><path class="cls-11" d="M103.87,160.78c-.06,0-.08,0-.08-.08s0-.06,0-.07a7.54,7.54,0,0,0,0-9.44s0,0,0-.08a.14.14,0,0,1,0-.06l.06,0H104l.05,0a4.76,4.76,0,0,1,1.17,1.35,6.51,6.51,0,0,1,.68,1.68,7.9,7.9,0,0,1,.21,1.83,8.58,8.58,0,0,1-.11,1.35,7.62,7.62,0,0,1-.37,1.32,5.32,5.32,0,0,1-.65,1.2,4.55,4.55,0,0,1-.93,1l-.05,0Z"/><path class="cls-11" d="M110.64,155.16a.16.16,0,0,1-.13-.06.19.19,0,0,1,0-.28.16.16,0,0,1,.13-.06h6.12a.14.14,0,0,1,.12.06.22.22,0,0,1,0,.28.14.14,0,0,1-.12.06Zm0,1.88a.16.16,0,0,1-.13-.06.18.18,0,0,1-.06-.13.2.2,0,0,1,.06-.14.19.19,0,0,1,.13-.05h6.12a.17.17,0,0,1,.12.05.19.19,0,0,1,.05.14.17.17,0,0,1-.05.13.14.14,0,0,1-.12.06Z"/><path class="cls-11" d="M122.9,158.31a.86.86,0,0,0,.8-.56,3.49,3.49,0,0,0,.33-1.24q.06-.67.06-1.44c0-.48,0-.93-.06-1.34a3,3,0,0,0-.32-1.13.86.86,0,0,0-.81-.5.87.87,0,0,0-.82.51,3,3,0,0,0-.33,1.12c0,.41-.06.86-.06,1.34s0,.71,0,1a5.62,5.62,0,0,0,.14,1,2.46,2.46,0,0,0,.37.87A.8.8,0,0,0,122.9,158.31Zm0,.24a1.61,1.61,0,0,1-1.63-1,5.91,5.91,0,0,1-.42-2.33,8.05,8.05,0,0,1,.15-1.6,2.65,2.65,0,0,1,.61-1.27,1.6,1.6,0,0,1,1.29-.52,1.66,1.66,0,0,1,1,.31,2,2,0,0,1,.62.81,4.12,4.12,0,0,1,.29,1.07,7.69,7.69,0,0,1,.09,1.2,7.78,7.78,0,0,1-.16,1.56,2.73,2.73,0,0,1-.61,1.24A1.62,1.62,0,0,1,122.9,158.55Z"/><path class="cls-12" d="M339.48,101.44l4.25-4.24m-4.25,0,4.25,4.24m-5.12-2.12h6m-3-3v6"/><path class="cls-12" d="M191.78,102,196,97.76m-4.24,0L196,102m-5.12-2.12h6m-3-3v6"/><path class="cls-12" d="M103.16,228.79l4.24-4.24m-4.24,0,4.24,4.24m-5.12-2.12h6m-3-3v6"/><path class="cls-12" d="M162.31,186.5l4.25-4.24m-4.25,0,4.25,4.24m-5.12-2.12h6m-3-3v6"/><path class="cls-13" d="M244.61,144.25l4.24-4.24m-4.24,0,4.24,4.24m-5.12-2.12h6m-3-3v6"/><polyline class="cls-14" points="46.47 268.88 46.79 268.68 47.12 268.48 47.44 268.27 47.77 268.07 48.09 267.87 48.42 267.67 48.75 267.46 49.07 267.26 49.4 267.05 49.72 266.85 50.05 266.64 50.38 266.43 50.7 266.22 51.03 266.02 51.35 265.81 51.68 265.6 52 265.39 52.33 265.18 52.66 264.97 52.98 264.76 53.31 264.54 53.63 264.33 53.96 264.12 54.28 263.9 54.61 263.69 54.94 263.48 55.26 263.26 55.59 263.05 55.91 262.83 56.24 262.61 56.57 262.4 56.89 262.18 57.22 261.96 57.54 261.74 57.87 261.52 58.2 261.3 58.52 261.08 58.85 260.86 59.17 260.64 59.5 260.42 59.82 260.2 60.15 259.98 60.48 259.75 60.8 259.53 61.13 259.31 61.45 259.08 61.78 258.86 62.1 258.64 62.43 258.41 62.76 258.19 63.08 257.96 63.41 257.73 63.73 257.51 64.06 257.28 64.39 257.05 64.71 256.82 65.04 256.6 65.36 256.37 65.69 256.14 66.02 255.91 66.34 255.68 66.67 255.45 66.99 255.22 67.32 254.99 67.64 254.76 67.97 254.53 68.3 254.29 68.62 254.06 68.95 253.83 69.27 253.6 69.6 253.36 69.92 253.13 70.25 252.9 70.58 252.66 70.9 252.43 71.23 252.19 71.55 251.96 71.88 251.72 72.2 251.49 72.53 251.25 72.86 251.01 73.18 250.78 73.51 250.54 73.83 250.31 74.16 250.07 74.49 249.83 74.81 249.59 75.14 249.35 75.46 249.12 75.79 248.88 76.11 248.64 76.44 248.4 76.77 248.16 77.09 247.92 77.42 247.68 77.74 247.44 78.07 247.2 78.4 246.96 78.72 246.72 79.05 246.48 79.37 246.24 79.7 246 80.03 245.75 80.35 245.51 80.68 245.27 81 245.03 81.33 244.79 81.65 244.54 81.98 244.3 82.31 244.06 82.63 243.81 82.96 243.57 83.28 243.33 83.61 243.08 83.94 242.84 84.26 242.6 84.59 242.35 84.91 242.11 85.24 241.86 85.56 241.62 85.89 241.37 86.22 241.13 86.54 240.88 86.87 240.64 87.19 240.39 87.52 240.15 87.84 239.9 88.17 239.66 88.5 239.41 88.82 239.17 89.15 238.92 89.47 238.67 89.8 238.43 90.13 238.18 90.45 237.94 90.78 237.69 91.1 237.44 91.43 237.19 91.75 236.95 92.08 236.7 92.41 236.46 92.73 236.21 93.06 235.96 93.38 235.71 93.71 235.47 94.04 235.22 94.36 234.97 94.69 234.72 95.01 234.48 95.34 234.23 95.67 233.98 95.99 233.73 96.32 233.49 96.64 233.24 96.97 232.99 97.29 232.74 97.62 232.5 97.95 232.25 98.27 232 98.6 231.75 98.92 231.5 99.25 231.26 99.58 231.01 99.9 230.76 100.23 230.51 100.55 230.26 100.88 230.02 101.2 229.77 101.53 229.52 101.86 229.27 102.18 229.02 102.51 228.78 102.83 228.53 103.16 228.28 103.48 228.03 103.81 227.78 104.14 227.54 104.46 227.29 104.79 227.04 105.11 226.79 105.44 226.54 105.77 226.3 106.09 226.05 106.42 225.8 106.74 225.55 107.07 225.31 107.39 225.06 107.72 224.81 108.05 224.56 108.37 224.32 108.7 224.07 109.02 223.82 109.35 223.57 109.67 223.33 110 223.08 110.33 222.83 110.65 222.59 110.98 222.34 111.3 222.09 111.63 221.85 111.96 221.6 112.28 221.35 112.61 221.11 112.93 220.86 113.26 220.61 113.58 220.37 113.91 220.12 114.24 219.88 114.56 219.63 114.89 219.38 115.21 219.14 115.54 218.89 115.87 218.65 116.19 218.4 116.52 218.16 116.84 217.91 117.17 217.67 117.5 217.42 117.82 217.18 118.15 216.93 118.47 216.69 118.8 216.44 119.12 216.2 119.45 215.96 119.78 215.71 120.1 215.47 120.43 215.23 120.75 214.98 121.08 214.74 121.41 214.5 121.73 214.25 122.06 214.01 122.38 213.77 122.71 213.53 123.03 213.28 123.36 213.04 123.69 212.8 124.01 212.56 124.34 212.31 124.66 212.07 124.99 211.83 125.31 211.59 125.64 211.35 125.97 211.11 126.29 210.87 126.62 210.63 126.94 210.39 127.27 210.15 127.6 209.91 127.92 209.67 128.25 209.43 128.57 209.19 128.9 208.95 129.22 208.71 129.55 208.47 129.88 208.23 130.2 208 130.53 207.76 130.85 207.52 131.18 207.28 131.51 207.04 131.83 206.81 132.16 206.57 132.48 206.33 132.81 206.1 133.13 205.86 133.46 205.62 133.79 205.39 134.11 205.15 134.44 204.92 134.76 204.68 135.09 204.45 135.41 204.21 135.74 203.98 136.07 203.74 136.39 203.51 136.72 203.27 137.04 203.04 137.37 202.81 137.7 202.57 138.02 202.34 138.35 202.11 138.67 201.88 139 201.64 139.32 201.41 139.65 201.18 139.98 200.95 140.3 200.72 140.63 200.49 140.96 200.26 141.28 200.03 141.61 199.8 141.93 199.57 142.26 199.34 142.58 199.11 142.91 198.88 143.24 198.65 143.56 198.42 143.89 198.19 144.21 197.96 144.54 197.74 144.86 197.51 145.19 197.28 145.52 197.06 145.84 196.83 146.17 196.6 146.49 196.38 146.82 196.15 147.15 195.93 147.47 195.7 147.8 195.47 148.12 195.25 148.45 195.03 148.77 194.8 149.1 194.58 149.43 194.35 149.75 194.13 150.08 193.91 150.4 193.69 150.73 193.46 151.06 193.24 151.38 193.02 151.71 192.8 152.03 192.58 152.36 192.36 152.68 192.14 153.01 191.92 153.34 191.7 153.66 191.48 153.99 191.26 154.31 191.04 154.64 190.82 154.97 190.6 155.29 190.38 155.62 190.17 155.94 189.95 156.27 189.73 156.59 189.51 156.92 189.3 157.25 189.08 157.57 188.87 157.9 188.65 158.22 188.44 158.55 188.22 158.88 188.01 159.2 187.79 159.53 187.58 159.85 187.37 160.18 187.15 160.5 186.94 160.83 186.73 161.16 186.51 161.48 186.3 161.81 186.09 162.13 185.88 162.46 185.67 162.78 185.46 163.11 185.25 163.44 185.04 163.76 184.83 164.09 184.62 164.41 184.41 164.74 184.2 165.07 183.99 165.39 183.79 165.72 183.58 166.04 183.37 166.37 183.16 166.69 182.96 167.02 182.75 167.35 182.55 167.67 182.34 168 182.14 168.32 181.93 168.65 181.73 168.98 181.52 169.3 181.32 169.63 181.12 169.95 180.91 170.28 180.71 170.6 180.51 170.93 180.31 171.26 180.1 171.58 179.9 171.91 179.7 172.23 179.5 172.56 179.3 172.88 179.1 173.21 178.9 173.54 178.7 173.86 178.5 174.19 178.3 174.51 178.11 174.84 177.91 175.17 177.71 175.49 177.51 175.82 177.32 176.14 177.12 176.47 176.92 176.79 176.73 177.12 176.53 177.45 176.34 177.77 176.14 178.1 175.95 178.42 175.75 178.75 175.56 179.08 175.37 179.4 175.18 179.73 174.98 180.05 174.79 180.38 174.6 180.71 174.41 181.03 174.22 181.36 174.03 181.68 173.84 182.01 173.65 182.33 173.46 182.66 173.27 182.99 173.08 183.31 172.89 183.64 172.7 183.96 172.51 184.29 172.32 184.62 172.14 184.94 171.95 185.27 171.76 185.59 171.58 185.92 171.39 186.24 171.21 186.57 171.02 186.9 170.84 187.22 170.65 187.55 170.47 187.87 170.29 188.2 170.1 188.53 169.92 188.85 169.74 189.18 169.56 189.5 169.37 189.83 169.19 190.15 169.01 190.48 168.83 190.81 168.65 191.13 168.47 191.46 168.29 191.78 168.11 192.11 167.93 192.44 167.75 192.76 167.57 193.09 167.4 193.41 167.22 193.74 167.04 194.06 166.87 194.39 166.69 194.72 166.51 195.04 166.34 195.37 166.16 195.69 165.99 196.02 165.81 196.34 165.64 196.67 165.46 197 165.29 197.32 165.12 197.65 164.94 197.97 164.77 198.3 164.6 198.63 164.43 198.95 164.26 199.28 164.09 199.6 163.91 199.93 163.74 200.25 163.57 200.58 163.4 200.91 163.23 201.23 163.06 201.56 162.9 201.88 162.73 202.21 162.56 202.54 162.39 202.86 162.22 203.19 162.06 203.51 161.89 203.84 161.72 204.16 161.56 204.49 161.39 204.82 161.23 205.14 161.06 205.47 160.9 205.79 160.73 206.12 160.57 206.45 160.41 206.77 160.24 207.1 160.08 207.42 159.92 207.75 159.75 208.07 159.59 208.4 159.43 208.73 159.27 209.05 159.11 209.38 158.95 209.7 158.79 210.03 158.63 210.35 158.47 210.68 158.31 211.01 158.15 211.33 157.99 211.66 157.83 211.99 157.67 212.31 157.51 212.64 157.36 212.96 157.2 213.29 157.04 213.61 156.89 213.94 156.73 214.26 156.57 214.59 156.42 214.92 156.26 215.24 156.11 215.57 155.96 215.89 155.8 216.22 155.65 216.55 155.49 216.87 155.34 217.2 155.19 217.52 155.03 217.85 154.88 218.18 154.73 218.5 154.58 218.83 154.43 219.15 154.27 219.48 154.12 219.8 153.97 220.13 153.82 220.46 153.67 220.78 153.52 221.11 153.37 221.43 153.22 221.76 153.07 222.09 152.93 222.41 152.78 222.74 152.63 223.06 152.48 223.39 152.33 223.71 152.19 224.04 152.04 224.37 151.89 224.69 151.75 225.02 151.6 225.34 151.45 225.67 151.31 226 151.16 226.32 151.02 226.65 150.87 226.97 150.73 227.3 150.59 227.62 150.44 227.95 150.3 228.28 150.15 228.6 150.01 228.93 149.87 229.25 149.72 229.58 149.58 229.91 149.44 230.23 149.3 230.56 149.16 230.88 149.01 231.21 148.87 231.53 148.73 231.86 148.59 232.19 148.45 232.51 148.31 232.84 148.17 233.16 148.03 233.49 147.89 233.81 147.75 234.14 147.62 234.47 147.48 234.79 147.34 235.12 147.2 235.44 147.06 235.77 146.92 236.1 146.79 236.42 146.65 236.75 146.51 237.07 146.38 237.4 146.24 237.72 146.1 238.05 145.97 238.38 145.83 238.7 145.69 239.03 145.56 239.35 145.42 239.68 145.29 240.01 145.15 240.33 145.02 240.66 144.88 240.98 144.75 241.31 144.61 241.63 144.48 241.96 144.35 242.29 144.21 242.61 144.08 242.94 143.94 243.26 143.81 243.59 143.68 243.91 143.55 244.24 143.41 244.57 143.28 244.89 143.15 245.22 143.02 245.54 142.89 245.87 142.75 246.2 142.62 246.52 142.49 246.85 142.36 247.17 142.23 247.5 142.1 247.82 141.97 248.15 141.84 248.48 141.71 248.8 141.58 249.13 141.45 249.45 141.32 249.78 141.19 250.11 141.06 250.43 140.93 250.76 140.8 251.08 140.67 251.41 140.54 251.74 140.41 252.06 140.28 252.39 140.15 252.71 140.02 253.04 139.9 253.36 139.77 253.69 139.64 254.02 139.51 254.34 139.38 254.67 139.25 254.99 139.13 255.32 139 255.65 138.87 255.97 138.74 256.3 138.62 256.62 138.49 256.95 138.36 257.27 138.24 257.6 138.11 257.93 137.98 258.25 137.85 258.58 137.73 258.9 137.6 259.23 137.47 259.56 137.35 259.88 137.22 260.21 137.09 260.53 136.97 260.86 136.84 261.18 136.72 261.51 136.59 261.84 136.46 262.16 136.34 262.49 136.21 262.81 136.09 263.14 135.96 263.46 135.83 263.79 135.71 264.12 135.58 264.44 135.46 264.77 135.33 265.09 135.21 265.42 135.08 265.75 134.95 266.07 134.83 266.4 134.7 266.72 134.58 267.05 134.45 267.38 134.33 267.7 134.2 268.03 134.07 268.35 133.95 268.68 133.82 269 133.7 269.33 133.57 269.66 133.45 269.98 133.32 270.31 133.2 270.63 133.07 270.96 132.94 271.29 132.82 271.61 132.69 271.94 132.57 272.26 132.44 272.59 132.32 272.91 132.19 273.24 132.06 273.57 131.94 273.89 131.81 274.22 131.69 274.54 131.56 274.87 131.44 275.19 131.31 275.52 131.18 275.85 131.06 276.17 130.93 276.5 130.8 276.82 130.68 277.15 130.55 277.48 130.43 277.8 130.3 278.13 130.17 278.45 130.04 278.78 129.92 279.11 129.79 279.43 129.66 279.76 129.54 280.08 129.41 280.41 129.28 280.73 129.15 281.06 129.03 281.38 128.9 281.71 128.77 282.04 128.64 282.36 128.51 282.69 128.39 283.01 128.26 283.34 128.13 283.67 128 283.99 127.87 284.32 127.74 284.64 127.61 284.97 127.48 285.3 127.36 285.62 127.23 285.95 127.1 286.27 126.97 286.6 126.84 286.92 126.71 287.25 126.58 287.58 126.44 287.9 126.31 288.23 126.18 288.55 126.05 288.88 125.92 289.2 125.79 289.53 125.66 289.86 125.53 290.18 125.39 290.51 125.26 290.83 125.13 291.16 125 291.49 124.86 291.81 124.73 292.14 124.6 292.46 124.46 292.79 124.33 293.12 124.19 293.44 124.06 293.77 123.92 294.09 123.79 294.42 123.66 294.74 123.52 295.07 123.38 295.4 123.25 295.72 123.11 296.05 122.97 296.37 122.84 296.7 122.7 297.02 122.56 297.35 122.43 297.68 122.29 298 122.15 298.33 122.01 298.65 121.87 298.98 121.73 299.31 121.59 299.63 121.45 299.96 121.31 300.28 121.17 300.61 121.03 300.94 120.89 301.26 120.75 301.59 120.61 301.91 120.47 302.24 120.33 302.56 120.18 302.89 120.04 303.22 119.9 303.54 119.75 303.87 119.61 304.19 119.46 304.52 119.32 304.85 119.17 305.17 119.03 305.5 118.88 305.82 118.74 306.15 118.59 306.47 118.44 306.8 118.29 307.13 118.15 307.45 118 307.78 117.85 308.1 117.7 308.43 117.55 308.75 117.4 309.08 117.25 309.41 117.1 309.73 116.95 310.06 116.8 310.38 116.64 310.71 116.49 311.04 116.34 311.36 116.18 311.69 116.03 312.01 115.88 312.34 115.72 312.67 115.56 312.99 115.41 313.32 115.25 313.64 115.1 313.97 114.94 314.29 114.78 314.62 114.62 314.94 114.46 315.27 114.3 315.6 114.14 315.92 113.98 316.25 113.82 316.57 113.66 316.9 113.5 317.23 113.34 317.55 113.17 317.88 113.01 318.2 112.85 318.53 112.68 318.86 112.52 319.18 112.35 319.51 112.18 319.83 112.02 320.16 111.85 320.49 111.68 320.81 111.51 321.14 111.34 321.46 111.17 321.79 111 322.11 110.83 322.44 110.66 322.76 110.49 323.09 110.31 323.42 110.14 323.74 109.97 324.07 109.79 324.39 109.62 324.72 109.44 325.05 109.26 325.37 109.09 325.7 108.91 326.02 108.73 326.35 108.55 326.68 108.37 327 108.19 327.33 108.01 327.65 107.83 327.98 107.64 328.3 107.46 328.63 107.28 328.96 107.09 329.28 106.91 329.61 106.72 329.93 106.53 330.26 106.34 330.58 106.16 330.91 105.97 331.24 105.78 331.56 105.59 331.89 105.39 332.21 105.2 332.54 105.01 332.87 104.82 333.19 104.62 333.52 104.43 333.84 104.23 334.17 104.03 334.5 103.84 334.82 103.64 335.15 103.44 335.47 103.24 335.8 103.04 336.12 102.84 336.45 102.64 336.78 102.43 337.1 102.23 337.43 102.02 337.75 101.82 338.08 101.61 338.4 101.4 338.73 101.2 339.06 100.99 339.38 100.78 339.71 100.57 340.03 100.36 340.36 100.14 340.69 99.93 341.01 99.72 341.34 99.5 341.66 99.28 341.99 99.07 342.31 98.85 342.64 98.63 342.97 98.41 343.29 98.19 343.62 97.97 343.94 97.75 344.27 97.52 344.6 97.3 344.92 97.07 345.25 96.85 345.57 96.62 345.9 96.39 346.23 96.16 346.55 95.93 346.88 95.7 347.2 95.47 347.53 95.24 347.85 95 348.18 94.77 348.51 94.53 348.83 94.3 349.16 94.06 349.48 93.82 349.81 93.58 350.13 93.34 350.46 93.09 350.79 92.85 351.11 92.61 351.44 92.36 351.76 92.12 352.09 91.87 352.42 91.62 352.74 91.37 353.07 91.12 353.39 90.87 353.72 90.61 354.05 90.36 354.37 90.11 354.7 89.85 355.02 89.59 355.35 89.33 355.67 89.08 356 88.81 356.32 88.55 356.65 88.29 356.98 88.03 357.3 87.76 357.63 87.49 357.95 87.23 358.28 86.96 358.61 86.69 358.93 86.42 359.26 86.14 359.58 85.87 359.91 85.59 360.24 85.32 360.56 85.04 360.89 84.76 361.21 84.48 361.54 84.2 361.86 83.92 362.19 83.64 362.52 83.35 362.84 83.07 363.17 82.78 363.49 82.49 363.82 82.2 364.14 81.91 364.47 81.62 364.8 81.33 365.12 81.03 365.45 80.73 365.77 80.44 366.1 80.14 366.43 79.84 366.75 79.54 367.08 79.23 367.4 78.93 367.73 78.62 368.06 78.32 368.38 78.01 368.71 77.7 369.03 77.39 369.36 77.08 369.68 76.76 370.01 76.45 370.34 76.13 370.66 75.81 370.99 75.49 371.31 75.17 371.64 74.85 371.96 74.53"/><polyline class="cls-14" points="46.47 268.88 46.79 268.42 47.12 267.96 47.44 267.51 47.77 267.05 48.09 266.59 48.42 266.13 48.75 265.67 49.07 265.21 49.4 264.75 49.72 264.3 50.05 263.84 50.38 263.38 50.7 262.92 51.03 262.45 51.35 261.99 51.68 261.53 52 261.07 52.33 260.61 52.66 260.15 52.98 259.69 53.31 259.23 53.63 258.76 53.96 258.3 54.28 257.84 54.61 257.38 54.94 256.91 55.26 256.45 55.59 255.99 55.91 255.53 56.24 255.06 56.57 254.6 56.89 254.13 57.22 253.67 57.54 253.21 57.87 252.74 58.2 252.28 58.52 251.81 58.85 251.35 59.17 250.89 59.5 250.42 59.82 249.96 60.15 249.49 60.48 249.03 60.8 248.56 61.13 248.1 61.45 247.63 61.78 247.17 62.1 246.71 62.43 246.24 62.76 245.78 63.08 245.31 63.41 244.85 63.73 244.38 64.06 243.92 64.39 243.45 64.71 242.99 65.04 242.52 65.36 242.06 65.69 241.59 66.02 241.13 66.34 240.66 66.67 240.2 66.99 239.73 67.32 239.27 67.64 238.81 67.97 238.34 68.3 237.88 68.62 237.41 68.95 236.95 69.27 236.49 69.6 236.02 69.92 235.56 70.25 235.09 70.58 234.63 70.9 234.17 71.23 233.7 71.55 233.24 71.88 232.78 72.2 232.31 72.53 231.85 72.86 231.39 73.18 230.93 73.51 230.46 73.83 230 74.16 229.54 74.49 229.08 74.81 228.62 75.14 228.16 75.46 227.69 75.79 227.23 76.11 226.77 76.44 226.31 76.77 225.85 77.09 225.39 77.42 224.93 77.74 224.47 78.07 224.01 78.4 223.55 78.72 223.09 79.05 222.63 79.37 222.18 79.7 221.72 80.03 221.26 80.35 220.8 80.68 220.34 81 219.89 81.33 219.43 81.65 218.97 81.98 218.52 82.31 218.06 82.63 217.6 82.96 217.15 83.28 216.69 83.61 216.24 83.94 215.78 84.26 215.33 84.59 214.88 84.91 214.42 85.24 213.97 85.56 213.51 85.89 213.06 86.22 212.61 86.54 212.16 86.87 211.71 87.19 211.26 87.52 210.81 87.84 210.35 88.17 209.9 88.5 209.45 88.82 209 89.15 208.56 89.47 208.11 89.8 207.66 90.13 207.21 90.45 206.76 90.78 206.32 91.1 205.87 91.43 205.42 91.75 204.98 92.08 204.53 92.41 204.09 92.73 203.64 93.06 203.2 93.38 202.75 93.71 202.31 94.04 201.87 94.36 201.43 94.69 200.99 95.01 200.54 95.34 200.1 95.67 199.66 95.99 199.22 96.32 198.78 96.64 198.34 96.97 197.91 97.29 197.47 97.62 197.03 97.95 196.59 98.27 196.16 98.6 195.72 98.92 195.28 99.25 194.85 99.58 194.41 99.9 193.98 100.23 193.55 100.55 193.11 100.88 192.68 101.2 192.25 101.53 191.82 101.86 191.39 102.18 190.96 102.51 190.53 102.83 190.1 103.16 189.67 103.48 189.24 103.81 188.81 104.14 188.38 104.46 187.96 104.79 187.53 105.11 187.11 105.44 186.68 105.77 186.26 106.09 185.84 106.42 185.41 106.74 184.99 107.07 184.57 107.39 184.15 107.72 183.72 108.05 183.31 108.37 182.89 108.7 182.47 109.02 182.05 109.35 181.63 109.67 181.21 110 180.8 110.33 180.38 110.65 179.97 110.98 179.55 111.3 179.14 111.63 178.72 111.96 178.31 112.28 177.9 112.61 177.49 112.93 177.08 113.26 176.67 113.58 176.26 113.91 175.85 114.24 175.44 114.56 175.03 114.89 174.63 115.21 174.22 115.54 173.82 115.87 173.41 116.19 173.01 116.52 172.6 116.84 172.2 117.17 171.8 117.5 171.4 117.82 171 118.15 170.6 118.47 170.2 118.8 169.8 119.12 169.4 119.45 169 119.78 168.61 120.1 168.21 120.43 167.82 120.75 167.42 121.08 167.03 121.41 166.64 121.73 166.24 122.06 165.85 122.38 165.46 122.71 165.07 123.03 164.68 123.36 164.29 123.69 163.91 124.01 163.52 124.34 163.13 124.66 162.75 124.99 162.36 125.31 161.98 125.64 161.59 125.97 161.21 126.29 160.83 126.62 160.45 126.94 160.07 127.27 159.69 127.6 159.31 127.92 158.93 128.25 158.56 128.57 158.18 128.9 157.8 129.22 157.43 129.55 157.06 129.88 156.68 130.2 156.31 130.53 155.94 130.85 155.57 131.18 155.2 131.51 154.83 131.83 154.46 132.16 154.09 132.48 153.72 132.81 153.36 133.13 152.99 133.46 152.63 133.79 152.26 134.11 151.9 134.44 151.54 134.76 151.18 135.09 150.81 135.41 150.46 135.74 150.1 136.07 149.74 136.39 149.38 136.72 149.02 137.04 148.67 137.37 148.31 137.7 147.96 138.02 147.61 138.35 147.25 138.67 146.9 139 146.55 139.32 146.2 139.65 145.85 139.98 145.5 140.3 145.16 140.63 144.81 140.96 144.46 141.28 144.12 141.61 143.78 141.93 143.43 142.26 143.09 142.58 142.75 142.91 142.41 143.24 142.07 143.56 141.73 143.89 141.39 144.21 141.05 144.54 140.72 144.86 140.38 145.19 140.05 145.52 139.71 145.84 139.38 146.17 139.05 146.49 138.72 146.82 138.39 147.15 138.06 147.47 137.73 147.8 137.4 148.12 137.07 148.45 136.75 148.77 136.42 149.1 136.1 149.43 135.77 149.75 135.45 150.08 135.13 150.4 134.81 150.73 134.49 151.06 134.17 151.38 133.85 151.71 133.53 152.03 133.22 152.36 132.9 152.68 132.59 153.01 132.27 153.34 131.96 153.66 131.65 153.99 131.34 154.31 131.03 154.64 130.72 154.97 130.41 155.29 130.1 155.62 129.79 155.94 129.49 156.27 129.18 156.59 128.88 156.92 128.58 157.25 128.27 157.57 127.97 157.9 127.67 158.22 127.37 158.55 127.07 158.88 126.78 159.2 126.48 159.53 126.18 159.85 125.89 160.18 125.59 160.5 125.3 160.83 125.01 161.16 124.72 161.48 124.43 161.81 124.14 162.13 123.85 162.46 123.56 162.78 123.27 163.11 122.99 163.44 122.7 163.76 122.42 164.09 122.13 164.41 121.85 164.74 121.57 165.07 121.29 165.39 121.01 165.72 120.73 166.04 120.45 166.37 120.17 166.69 119.9 167.02 119.62 167.35 119.35 167.67 119.08 168 118.8 168.32 118.53 168.65 118.26 168.98 117.99 169.3 117.72 169.63 117.45 169.95 117.19 170.28 116.92 170.6 116.66 170.93 116.39 171.26 116.13 171.58 115.86 171.91 115.6 172.23 115.34 172.56 115.08 172.88 114.82 173.21 114.56 173.54 114.31 173.86 114.05 174.19 113.8 174.51 113.54 174.84 113.29 175.17 113.03 175.49 112.78 175.82 112.53 176.14 112.28 176.47 112.03 176.79 111.78 177.12 111.54 177.45 111.29 177.77 111.05 178.1 110.8 178.42 110.56 178.75 110.31 179.08 110.07 179.4 109.83 179.73 109.59 180.05 109.35 180.38 109.11 180.71 108.88 181.03 108.64 181.36 108.4 181.68 108.17 182.01 107.93 182.33 107.7 182.66 107.47 182.99 107.24 183.31 107.01 183.64 106.78 183.96 106.55 184.29 106.32 184.62 106.09 184.94 105.87 185.27 105.64 185.59 105.42 185.92 105.2 186.24 104.97 186.57 104.75 186.9 104.53 187.22 104.31 187.55 104.09 187.87 103.87 188.2 103.66 188.53 103.44 188.85 103.22 189.18 103.01 189.5 102.8 189.83 102.58 190.15 102.37 190.48 102.16 190.81 101.95 191.13 101.74 191.46 101.53 191.78 101.33 192.11 101.12 192.44 100.91 192.76 100.71 193.09 100.5 193.41 100.3 193.74 100.1 194.06 99.89 194.39 99.69 194.72 99.49 195.04 99.3 195.37 99.1 195.69 98.9 196.02 98.7 196.34 98.51 196.67 98.31 197 98.12 197.32 97.92 197.65 97.73 197.97 97.54 198.3 97.35 198.63 97.16 198.95 96.97 199.28 96.78 199.6 96.59 199.93 96.41 200.25 96.22 200.58 96.04 200.91 95.85 201.23 95.67 201.56 95.49 201.88 95.31 202.21 95.12 202.54 94.94 202.86 94.77 203.19 94.59 203.51 94.41 203.84 94.23 204.16 94.06 204.49 93.88 204.82 93.71 205.14 93.53 205.47 93.36 205.79 93.19 206.12 93.02 206.45 92.85 206.77 92.68 207.1 92.51 207.42 92.34 207.75 92.17 208.07 92 208.4 91.84 208.73 91.67 209.05 91.51 209.38 91.35 209.7 91.18 210.03 91.02 210.35 90.86 210.68 90.7 211.01 90.54 211.33 90.38 211.66 90.22 211.99 90.06 212.31 89.91 212.64 89.75 212.96 89.6 213.29 89.44 213.61 89.29 213.94 89.14 214.26 88.98 214.59 88.83 214.92 88.68 215.24 88.53 215.57 88.38 215.89 88.23 216.22 88.08 216.55 87.94 216.87 87.79 217.2 87.65 217.52 87.5 217.85 87.36 218.18 87.21 218.5 87.07 218.83 86.93 219.15 86.79 219.48 86.64 219.8 86.5 220.13 86.37 220.46 86.23 220.78 86.09 221.11 85.95 221.43 85.81 221.76 85.68 222.09 85.54 222.41 85.41 222.74 85.27 223.06 85.14 223.39 85.01 223.71 84.88 224.04 84.74 224.37 84.61 224.69 84.48 225.02 84.35 225.34 84.22 225.67 84.1 226 83.97 226.32 83.84 226.65 83.72 226.97 83.59 227.3 83.47 227.62 83.34 227.95 83.22 228.28 83.09 228.6 82.97 228.93 82.85 229.25 82.73 229.58 82.61 229.91 82.49 230.23 82.37 230.56 82.25 230.88 82.13 231.21 82.01 231.53 81.89 231.86 81.78 232.19 81.66 232.51 81.55 232.84 81.43 233.16 81.32 233.49 81.2 233.81 81.09 234.14 80.98 234.47 80.86 234.79 80.75 235.12 80.64 235.44 80.53 235.77 80.42 236.1 80.31 236.42 80.2 236.75 80.09 237.07 79.99 237.4 79.88 237.72 79.77 238.05 79.67 238.38 79.56 238.7 79.45 239.03 79.35 239.35 79.25 239.68 79.14 240.01 79.04 240.33 78.94 240.66 78.83 240.98 78.73 241.31 78.63 241.63 78.53 241.96 78.43 242.29 78.33 242.61 78.23 242.94 78.13 243.26 78.03 243.59 77.93 243.91 77.83 244.24 77.74 244.57 77.64 244.89 77.54 245.22 77.45 245.54 77.35 245.87 77.26 246.2 77.16 246.52 77.07 246.85 76.97 247.17 76.88 247.5 76.79 247.82 76.69 248.15 76.6 248.48 76.51 248.8 76.42 249.13 76.33 249.45 76.24 249.78 76.15 250.11 76.06 250.43 75.97 250.76 75.88 251.08 75.79 251.41 75.7 251.74 75.61 252.06 75.52 252.39 75.43 252.71 75.35 253.04 75.26 253.36 75.17 253.69 75.09 254.02 75 254.34 74.91 254.67 74.83 254.99 74.74 255.32 74.66 255.65 74.57 255.97 74.49 256.3 74.41 256.62 74.32 256.95 74.24 257.27 74.16 257.6 74.07 257.93 73.99 258.25 73.91 258.58 73.82 258.9 73.74 259.23 73.66 259.56 73.58 259.88 73.5 260.21 73.42 260.53 73.33 260.86 73.25 261.18 73.17 261.51 73.09 261.84 73.01 262.16 72.93 262.49 72.85 262.81 72.77 263.14 72.69 263.46 72.61 263.79 72.54 264.12 72.46 264.44 72.38 264.77 72.3 265.09 72.22 265.42 72.14 265.75 72.06 266.07 71.99 266.4 71.91 266.72 71.83 267.05 71.75 267.38 71.68 267.7 71.6 268.03 71.52 268.35 71.44 268.68 71.37 269 71.29 269.33 71.21 269.66 71.14 269.98 71.06 270.31 70.98 270.63 70.91 270.96 70.83 271.29 70.75 271.61 70.67 271.94 70.6 272.26 70.52 272.59 70.44 272.91 70.37 273.24 70.29 273.57 70.22 273.89 70.14 274.22 70.06 274.54 69.98 274.87 69.91 275.19 69.83 275.52 69.76 275.85 69.68 276.17 69.6 276.5 69.53 276.82 69.45 277.15 69.37 277.48 69.3 277.8 69.22 278.13 69.14 278.45 69.06 278.78 68.99 279.11 68.91 279.43 68.83 279.76 68.75 280.08 68.68 280.41 68.6 280.73 68.52 281.06 68.44 281.38 68.36 281.71 68.29 282.04 68.21 282.36 68.13 282.69 68.05 283.01 67.97 283.34 67.89 283.67 67.81 283.99 67.73 284.32 67.66 284.64 67.58 284.97 67.5 285.3 67.42 285.62 67.33 285.95 67.25 286.27 67.17 286.6 67.09 286.92 67.01 287.25 66.93 287.58 66.85 287.9 66.77 288.23 66.68 288.55 66.6 288.88 66.52 289.2 66.43 289.53 66.35 289.86 66.27 290.18 66.18 290.51 66.1 290.83 66.01 291.16 65.93 291.49 65.84 291.81 65.76 292.14 65.67 292.46 65.59 292.79 65.5 293.12 65.41 293.44 65.33 293.77 65.24 294.09 65.15 294.42 65.06 294.74 64.97 295.07 64.88 295.4 64.79 295.72 64.7 296.05 64.61 296.37 64.52 296.7 64.43 297.02 64.34 297.35 64.25 297.68 64.15 298 64.06 298.33 63.97 298.65 63.87 298.98 63.78 299.31 63.68 299.63 63.59 299.96 63.49 300.28 63.39 300.61 63.3 300.94 63.2 301.26 63.1 301.59 63 301.91 62.9 302.24 62.8 302.56 62.7 302.89 62.6 303.22 62.5 303.54 62.4 303.87 62.29 304.19 62.19 304.52 62.09 304.85 61.98 305.17 61.88 305.5 61.77 305.82 61.66 306.15 61.56 306.47 61.45 306.8 61.34 307.13 61.23 307.45 61.12 307.78 61.01 308.1 60.9 308.43 60.79 308.75 60.68 309.08 60.56 309.41 60.45 309.73 60.33 310.06 60.22 310.38 60.1 310.71 59.99 311.04 59.87 311.36 59.75 311.69 59.63 312.01 59.51 312.34 59.39 312.67 59.27 312.99 59.15 313.32 59.02 313.64 58.9 313.97 58.77 314.29 58.65 314.62 58.52 314.94 58.4 315.27 58.27 315.6 58.14 315.92 58.01 316.25 57.88 316.57 57.75 316.9 57.62 317.23 57.48 317.55 57.35 317.88 57.21 318.2 57.08 318.53 56.94 318.86 56.8 319.18 56.66 319.51 56.52 319.83 56.38 320.16 56.24 320.49 56.1 320.81 55.95 321.14 55.81 321.46 55.66 321.79 55.52 322.11 55.37 322.44 55.22 322.76 55.07 323.09 54.92 323.42 54.77 323.74 54.61 324.07 54.46 324.39 54.3 324.72 54.15 325.05 53.99 325.37 53.83 325.7 53.67 326.02 53.51 326.35 53.35 326.68 53.19 327 53.02 327.33 52.86 327.65 52.69 327.98 52.53 328.3 52.36 328.63 52.19 328.96 52.02 329.28 51.84 329.61 51.67 329.93 51.5 330.26 51.32 330.58 51.14 330.91 50.96 331.24 50.78 331.56 50.6 331.89 50.42 332.21 50.24 332.54 50.05 332.87 49.87 333.19 49.68 333.52 49.49 333.84 49.3 334.17 49.11 334.5 48.92 334.82 48.72 335.15 48.53 335.47 48.33 335.8 48.13 336.12 47.93 336.45 47.73 336.78 47.53 337.1 47.33 337.43 47.12 337.75 46.91 338.08 46.71 338.4 46.5 338.73 46.29 339.06 46.07 339.38 45.86 339.71 45.64 340.03 45.43 340.36 45.21 340.69 44.99 341.01 44.77 341.34 44.55 341.66 44.32 341.99 44.09 342.31 43.87 342.64 43.64 342.97 43.41 343.29 43.17 343.62 42.94 343.94 42.7 344.27 42.47 344.6 42.23 344.92 41.99 345.25 41.75 345.57 41.5 345.9 41.26 346.23 41.01 346.55 40.76 346.88 40.51 347.2 40.26 347.53 40.01 347.85 39.75 348.18 39.49 348.51 39.23 348.83 38.97 349.16 38.71 349.48 38.45 349.81 38.18 350.13 37.91 350.46 37.64 350.79 37.37 351.11 37.1 351.44 36.82 351.76 36.55 352.09 36.27 352.42 35.99 352.74 35.7 353.07 35.42 353.39 35.13 353.72 34.85 354.05 34.56 354.37 34.26 354.7 33.97 355.02 33.67 355.35 33.38 355.67 33.08 356 32.77 356.32 32.47 356.65 32.17 356.98 31.86 357.3 31.55 357.63 31.24 357.95 30.92 358.28 30.61 358.61 30.29 358.93 29.97 359.26 29.65 359.58 29.32 359.91 29 360.24 28.67 360.56 28.34 360.89 28.01 361.21 27.67 361.54 27.34 361.86 27 362.19 26.66 362.52 26.32 362.84 25.97 363.17 25.62 363.49 25.27 363.82 24.92 364.14 24.57 364.47 24.21 364.8 23.85 365.12 23.49 365.45 23.13 365.77 22.76 366.1 22.39 366.43 22.03 366.75 21.65 367.08 21.28 367.4 20.9 367.73 20.52 368.06 20.14 368.38 19.76 368.71 19.37 369.03 18.98 369.36 18.59 369.68 18.2 370.01 17.8 370.34 17.41 370.66 17 370.99 16.6 371.31 16.2 371.64 15.79 371.96 15.38"/><path class="cls-11" d="M231.46,158.18a.2.2,0,0,1,0-.09l.72-2.91a1.78,1.78,0,0,0,.07-.47c0-.28-.09-.42-.28-.42a.49.49,0,0,0-.45.36,7.52,7.52,0,0,0-.29.93.05.05,0,0,1,0,0l-.05,0h-.12a.07.07,0,0,1-.05,0,.11.11,0,0,1,0-.07,7.11,7.11,0,0,1,.21-.71,1.44,1.44,0,0,1,.3-.54A.64.64,0,0,1,232,154a.92.92,0,0,1,.59.2.82.82,0,0,1,.32.52,2,2,0,0,1,.56-.53,1.29,1.29,0,0,1,.7-.19.88.88,0,0,1,.54.18.59.59,0,0,1,.23.5.66.66,0,0,1-.15.43.51.51,0,0,1-.41.18.36.36,0,0,1-.27-.1.33.33,0,0,1-.1-.25.52.52,0,0,1,.16-.38.44.44,0,0,1,.35-.17.52.52,0,0,0-.37-.13,1,1,0,0,0-.73.3,2.94,2.94,0,0,0-.56.75l-.69,2.79a.44.44,0,0,1-.16.22.35.35,0,0,1-.25.1.32.32,0,0,1-.21-.08A.23.23,0,0,1,231.46,158.18Z"/><path class="cls-11" d="M238.53,160.76a4.55,4.55,0,0,1-.93-1,5.51,5.51,0,0,1-.65-1.19,6.18,6.18,0,0,1-.37-1.31,7,7,0,0,1-.13-1.37,7.12,7.12,0,0,1,.13-1.39,6.45,6.45,0,0,1,.37-1.32,6,6,0,0,1,.65-1.19,5.29,5.29,0,0,1,.93-1s0,0,0,0h.1l0,0a.09.09,0,0,1,0,.06.56.56,0,0,1,0,.07,4.9,4.9,0,0,0-.8,1,5.83,5.83,0,0,0-.51,1.14,7.32,7.32,0,0,0-.28,1.25,9.77,9.77,0,0,0-.09,1.35,6.31,6.31,0,0,0,1.66,4.71s0,0,0,.08a.09.09,0,0,1,0,.05.05.05,0,0,1,0,0h-.1S238.53,160.77,238.53,160.76Z"/><path class="cls-11" d="M240.42,157.28a2.48,2.48,0,0,1,.09-.65c.06-.23.14-.47.24-.75s.19-.51.27-.71a1.76,1.76,0,0,0,.13-.59c0-.19-.07-.29-.21-.29a.74.74,0,0,0-.64.4,2.83,2.83,0,0,0-.37.89.08.08,0,0,1-.08.06h-.12s-.08,0-.08-.1v0a3.22,3.22,0,0,1,.49-1A1,1,0,0,1,241,154a.82.82,0,0,1,.59.23.75.75,0,0,1,.24.58,1,1,0,0,1-.08.39l-.2.51c-.1.27-.18.49-.23.66s-.09.35-.13.52a2.94,2.94,0,0,0,0,.51,1,1,0,0,0,.14.54.48.48,0,0,0,.45.22,1.32,1.32,0,0,0,1.09-.76.25.25,0,0,0,0-.08.2.2,0,0,0,0-.07l.7-2.83a.48.48,0,0,1,.16-.22.38.38,0,0,1,.25-.09.31.31,0,0,1,.21.07.26.26,0,0,1,.09.21v.07l-.72,2.81a2.58,2.58,0,0,0-.06.48c0,.27.1.41.28.41s.36-.13.47-.39a5.29,5.29,0,0,0,.26-.89s0-.06.08-.06h.12s0,0,.06,0a.14.14,0,0,1,0,.06c-.07.28-.13.52-.2.72a1.44,1.44,0,0,1-.3.54.68.68,0,0,1-.53.24,1,1,0,0,1-.55-.17.89.89,0,0,1-.34-.45,2,2,0,0,1-.51.45,1.29,1.29,0,0,1-.63.17,1.24,1.24,0,0,1-.89-.31A1.08,1.08,0,0,1,240.42,157.28Z"/><path class="cls-11" d="M246.08,160.1a.09.09,0,0,1,0-.08,2.46,2.46,0,0,0,.55-.78,2.24,2.24,0,0,0,.19-.93v-.12a.52.52,0,0,1-.38.15.55.55,0,0,1-.54-.54.49.49,0,0,1,.16-.37.52.52,0,0,1,.38-.15.51.51,0,0,1,.49.31,1.66,1.66,0,0,1,.15.72,2.37,2.37,0,0,1-.22,1,2.94,2.94,0,0,1-.61.89h-.06a.16.16,0,0,1-.1,0A.14.14,0,0,1,246.08,160.1Z"/><path class="cls-11" d="M250.51,160a.69.69,0,0,0,.43.14c.24,0,.43-.26.58-.77,0-.25.22-1.06.49-2.45l.45-2.38h-.84c-.07,0-.1-.05-.1-.13s.07-.22.13-.22h.86l.12-.64.11-.5a3.69,3.69,0,0,1,.1-.39,1.89,1.89,0,0,1,.17-.41,1.48,1.48,0,0,1,.44-.52,1,1,0,0,1,.61-.22,1,1,0,0,1,.42.09.68.68,0,0,1,.33.24.52.52,0,0,1,.13.37.6.6,0,0,1-.16.42.53.53,0,0,1-.4.18.44.44,0,0,1-.27-.09.33.33,0,0,1-.11-.26.57.57,0,0,1,.14-.37.62.62,0,0,1,.37-.18.77.77,0,0,0-.45-.14.4.4,0,0,0-.28.14.78.78,0,0,0-.18.3c0,.16-.12.6-.27,1.33l-.11.65h1q.09,0,.09.12a.2.2,0,0,0,0,.09.3.3,0,0,1,0,.1.1.1,0,0,1-.07,0h-1l-.45,2.38c-.06.34-.13.69-.2,1a10.89,10.89,0,0,1-.31,1.1,3.3,3.3,0,0,1-.52.95,1,1,0,0,1-.74.38,1,1,0,0,1-.59-.19.58.58,0,0,1-.26-.5.6.6,0,0,1,.16-.43.52.52,0,0,1,.4-.18.4.4,0,0,1,.27.09.31.31,0,0,1,.12.26.57.57,0,0,1-.16.38A.51.51,0,0,1,250.51,160Z"/><path class="cls-11" d="M255.94,160.1A.08.08,0,0,1,256,160a2.6,2.6,0,0,0,.54-.78,2.24,2.24,0,0,0,.19-.93v-.12a.52.52,0,0,1-.38.15.55.55,0,0,1-.54-.54.49.49,0,0,1,.16-.37.52.52,0,0,1,.38-.15.51.51,0,0,1,.49.31,1.66,1.66,0,0,1,.15.72,2.52,2.52,0,0,1-.21,1,3,3,0,0,1-.62.89h-.06a.16.16,0,0,1-.1,0A.14.14,0,0,1,255.94,160.1Z"/><path class="cls-11" d="M259.9,158.45a.07.07,0,0,1-.08-.08.12.12,0,0,1,0-.07,5.35,5.35,0,0,1,.63-.87c.25-.27.53-.55.84-.83l.94-.85A9.38,9.38,0,0,0,263,155h0a2,2,0,0,1-.62-.14,2.38,2.38,0,0,0-.65-.14,1.34,1.34,0,0,0-.51.11.52.52,0,0,0-.3.35s0,.07-.08.07h-.12c-.05,0-.08,0-.08-.09v0a1.63,1.63,0,0,1,.26-.53,1.45,1.45,0,0,1,.42-.4,1,1,0,0,1,.54-.16.52.52,0,0,1,.31.09,1.73,1.73,0,0,1,.3.27,2.14,2.14,0,0,0,.28.27.45.45,0,0,0,.28.09.5.5,0,0,0,.38-.2,3.32,3.32,0,0,0,.33-.48.08.08,0,0,1,.07,0h.12l0,0a.08.08,0,0,1,0,.07.13.13,0,0,1,0,.06,5.29,5.29,0,0,1-.62.85,11.14,11.14,0,0,1-.91.9l-1,.85c-.25.24-.5.48-.72.72H261a2.11,2.11,0,0,1,.64.13,2.32,2.32,0,0,0,.64.14,1.28,1.28,0,0,0,.49-.11,1.42,1.42,0,0,0,.43-.29,1,1,0,0,0,.24-.43c0-.05,0-.08.08-.08h.12a.05.05,0,0,1,.05,0,.11.11,0,0,1,0,.07v0a2.16,2.16,0,0,1-.32.71,1.92,1.92,0,0,1-.55.55,1.21,1.21,0,0,1-.7.22.62.62,0,0,1-.31-.08,3,3,0,0,1-.3-.27,2.35,2.35,0,0,0-.29-.28.39.39,0,0,0-.26-.09c-.33,0-.62.23-.88.7l-.06,0Z"/><path class="cls-11" d="M264.69,159.84v-.23c.57,0,.85-.08.85-.22v-3.54a2,2,0,0,1-.88.16v-.23a1.67,1.67,0,0,0,1.25-.44h.1l0,0a.08.08,0,0,1,0,0v4c0,.14.28.22.84.22v.23Z"/><path class="cls-11" d="M268.71,160.78c-.06,0-.09,0-.09-.08a.12.12,0,0,1,0-.07,7.54,7.54,0,0,0,0-9.44.09.09,0,0,1,0-.08.09.09,0,0,1,0-.06l.06,0h.09l.05,0A4.72,4.72,0,0,1,270,152.4a5.87,5.87,0,0,1,.68,1.68,7.4,7.4,0,0,1,.22,1.83,7.53,7.53,0,0,1-.12,1.35,6.82,6.82,0,0,1-.37,1.32,5.29,5.29,0,0,1-.64,1.2,4.55,4.55,0,0,1-.93,1l-.05,0Z"/><path class="cls-11" d="M275.48,155.16a.18.18,0,0,1-.14-.06.22.22,0,0,1,0-.28.18.18,0,0,1,.14-.06h6.12a.17.17,0,0,1,.12.06.22.22,0,0,1,0,.28.17.17,0,0,1-.12.06Zm0,1.88a.18.18,0,0,1-.14-.06.21.21,0,0,1,0-.13.24.24,0,0,1,0-.14.22.22,0,0,1,.14-.05h6.12a.21.21,0,0,1,.12.05.24.24,0,0,1,0,.14.21.21,0,0,1,0,.13.17.17,0,0,1-.12.06Z"/><path class="cls-11" d="M287.19,159a.86.86,0,0,0,.81-.56,3.49,3.49,0,0,0,.33-1.23q.06-.69.06-1.44t-.06-1.35a3.16,3.16,0,0,0-.32-1.13.92.92,0,0,0-1.64,0,2.8,2.8,0,0,0-.32,1.12q-.06.62-.06,1.35c0,.36,0,.71,0,1a5.89,5.89,0,0,0,.14,1,2.33,2.33,0,0,0,.37.86A.8.8,0,0,0,287.19,159Zm0,.25a1.61,1.61,0,0,1-1.62-1,5.87,5.87,0,0,1-.43-2.33,7.42,7.42,0,0,1,.16-1.6,2.65,2.65,0,0,1,.6-1.26,1.64,1.64,0,0,1,1.29-.53,1.75,1.75,0,0,1,1.06.31,2,2,0,0,1,.62.81,4.23,4.23,0,0,1,.29,1.07,7.72,7.72,0,0,1,.08,1.2,7.82,7.82,0,0,1-.15,1.57,2.78,2.78,0,0,1-.61,1.24A1.63,1.63,0,0,1,287.19,159.26Z"/><path d="M331.09,94.76a2.48,2.48,0,0,1,.09-.65c.06-.22.14-.47.24-.74s.19-.51.27-.72a2,2,0,0,0,.13-.58q0-.3-.21-.3a.76.76,0,0,0-.64.4,2.94,2.94,0,0,0-.37.89s0,.06-.08.06h-.12c-.06,0-.08,0-.08-.09v0a3.37,3.37,0,0,1,.48-1,1,1,0,0,1,.82-.45.83.83,0,0,1,.59.22.78.78,0,0,1,.24.58,1.09,1.09,0,0,1-.08.39c0,.08-.1.25-.2.52s-.18.48-.23.66-.09.35-.13.51a2.94,2.94,0,0,0-.05.51,1,1,0,0,0,.13.54.49.49,0,0,0,.45.23,1.31,1.31,0,0,0,1.09-.77.24.24,0,0,0,0-.08.15.15,0,0,0,0-.07l.7-2.82a.42.42,0,0,1,.15-.22.39.39,0,0,1,.26-.1.32.32,0,0,1,.21.08.28.28,0,0,1,.08.2V92l-.71,2.82a2.4,2.4,0,0,0-.06.48c0,.27.09.41.28.41s.36-.13.46-.39a4.92,4.92,0,0,0,.27-.89.08.08,0,0,1,.08-.06h.12a.07.07,0,0,1,.06,0,.17.17,0,0,1,0,.05c-.07.29-.14.53-.2.72a1.44,1.44,0,0,1-.3.54.68.68,0,0,1-.53.24.9.9,0,0,1-.55-.17.81.81,0,0,1-.34-.45,1.71,1.71,0,0,1-.52.45,1.14,1.14,0,0,1-.62.17,1.32,1.32,0,0,1-.9-.3A1.12,1.12,0,0,1,331.09,94.76Z"/><path d="M336.19,89.68h1.61v-2.4Zm-.22.23v-.23l2.09-3.12a.07.07,0,0,1,.07,0h.09c.06,0,.08,0,.08.09v3.07H339v.23h-.66v.66c0,.09.07.15.2.18a2.19,2.19,0,0,0,.46,0V91H337.1v-.23a2,2,0,0,0,.45,0c.14,0,.2-.09.2-.18v-.66Z"/><path d="M340,92.24a.09.09,0,0,1,0-.06,1.6,1.6,0,0,0,.38-.54,1.53,1.53,0,0,0,.13-.64v-.08a.36.36,0,0,1-.27.1.37.37,0,0,1-.26-.63.36.36,0,0,1,.26-.11.36.36,0,0,1,.35.23,1.3,1.3,0,0,1,.1.49,1.71,1.71,0,0,1-.15.71,1.94,1.94,0,0,1-.43.61l0,0a.09.09,0,0,1-.07,0A.08.08,0,0,1,340,92.24Z"/><path d="M341.86,90.17a.16.16,0,0,1-.13-.07.17.17,0,0,1-.07-.14.18.18,0,0,1,.11-.16l1-.46-1-.46a.16.16,0,0,1-.11-.17.17.17,0,0,1,.07-.13.18.18,0,0,1,.13-.06s.07,0,.09,0l.87.63-.1-1.1a.16.16,0,0,1,.06-.13.17.17,0,0,1,.14-.06.16.16,0,0,1,.13.06.13.13,0,0,1,.05.12h0l-.09,1.1.86-.63a.15.15,0,0,1,.09,0,.2.2,0,0,1,.14.06.19.19,0,0,1,.06.13c0,.09,0,.15-.1.17l-1,.46,1,.46a.17.17,0,0,1,.1.16.2.2,0,0,1-.06.14.17.17,0,0,1-.14.07.12.12,0,0,1-.09,0L343,89.5l.09,1.1h0a.15.15,0,0,1-.06.13.18.18,0,0,1-.12.05.2.2,0,0,1-.14-.05.18.18,0,0,1-.06-.14l.1-1.1-.87.63A.1.1,0,0,1,341.86,90.17Z"/><path d="M336.4,98.5v-.24c.57,0,.85-.07.85-.22V94.5a2,2,0,0,1-.88.16v-.23a1.7,1.7,0,0,0,1.25-.43h.14a.08.08,0,0,1,0,0v4c0,.15.28.22.84.22v.24Z"/><path d="M242.7,134.54a2.48,2.48,0,0,1,.09-.65q.09-.33.24-.75c.1-.27.19-.51.27-.71a1.76,1.76,0,0,0,.13-.59c0-.19-.07-.29-.21-.29a.74.74,0,0,0-.64.4,2.83,2.83,0,0,0-.37.89.08.08,0,0,1-.08.06H242s-.08,0-.08-.1v0a3.22,3.22,0,0,1,.49-1,1,1,0,0,1,.81-.45.82.82,0,0,1,.59.23.77.77,0,0,1,.24.58.94.94,0,0,1-.08.39l-.2.51c-.1.27-.18.49-.23.67s-.09.34-.13.51a2.94,2.94,0,0,0,0,.51,1,1,0,0,0,.14.54.48.48,0,0,0,.45.22,1.32,1.32,0,0,0,1.09-.76s0-.06,0-.08a.17.17,0,0,0,0-.07l.7-2.83a.48.48,0,0,1,.16-.22.38.38,0,0,1,.25-.09.31.31,0,0,1,.21.07.26.26,0,0,1,.09.21v.07l-.72,2.81a2.58,2.58,0,0,0-.06.48c0,.28.1.41.28.41s.36-.13.47-.38a5.73,5.73,0,0,0,.26-.9.09.09,0,0,1,.08,0h.12l.06,0a.14.14,0,0,1,0,.06c-.07.28-.13.52-.2.72a1.44,1.44,0,0,1-.3.54.68.68,0,0,1-.53.24,1,1,0,0,1-.55-.17.85.85,0,0,1-.34-.45,1.71,1.71,0,0,1-.52.45,1.23,1.23,0,0,1-.62.17,1.28,1.28,0,0,1-.89-.3A1.12,1.12,0,0,1,242.7,134.54Z"/><path d="M248,130.28a1,1,0,0,0,.42.34,1.58,1.58,0,0,0,.58.11.57.57,0,0,0,.56-.34,1.65,1.65,0,0,0,.16-.75,2.43,2.43,0,0,0,0-.38,1.09,1.09,0,0,0-.12-.36.58.58,0,0,0-.23-.26.55.55,0,0,0-.34-.1h-.46a.05.05,0,0,1-.06-.06v-.06a.05.05,0,0,1,.06-.06l.38,0a.51.51,0,0,0,.39-.18,1.23,1.23,0,0,0,.23-.44,2.14,2.14,0,0,0,.07-.48.91.91,0,0,0-.15-.54.54.54,0,0,0-.46-.2,1.16,1.16,0,0,0-.49.1.79.79,0,0,0-.38.29h.05a.33.33,0,0,1,.25.1.33.33,0,0,1,.11.26.3.3,0,0,1-.11.24.34.34,0,0,1-.5,0,.33.33,0,0,1-.1-.24.75.75,0,0,1,.17-.51,1,1,0,0,1,.44-.33,1.55,1.55,0,0,1,.56-.11,1.65,1.65,0,0,1,.43.06,2.2,2.2,0,0,1,.41.18.86.86,0,0,1,.31.29.81.81,0,0,1,.11.41,1.06,1.06,0,0,1-.13.52,1.15,1.15,0,0,1-.35.41,1.41,1.41,0,0,1-.48.26,1.92,1.92,0,0,1,.56.22,1.24,1.24,0,0,1,.42.43,1,1,0,0,1,.16.55,1.19,1.19,0,0,1-.21.68,1.34,1.34,0,0,1-.53.47,1.54,1.54,0,0,1-.7.17,1.85,1.85,0,0,1-.64-.12,1.28,1.28,0,0,1-.52-.36.93.93,0,0,1-.2-.58.39.39,0,0,1,.11-.28.4.4,0,0,1,.29-.11.41.41,0,0,1,.19.05.38.38,0,0,1,.14.14.33.33,0,0,1,.05.2.43.43,0,0,1-.11.28.4.4,0,0,1-.27.11Z"/><path d="M251.56,132a.06.06,0,0,1,0-.06,1.83,1.83,0,0,0,.38-.54,1.56,1.56,0,0,0,.13-.64v-.09a.37.37,0,0,1-.27.11.36.36,0,0,1-.26-.11.39.39,0,0,1-.11-.27.34.34,0,0,1,.11-.25.38.38,0,0,1,.61.11,1.18,1.18,0,0,1,.1.5,1.66,1.66,0,0,1-.15.7,2,2,0,0,1-.42.62h0a.11.11,0,0,1-.07,0S251.56,132,251.56,132Z"/><path d="M253.47,129.94a.19.19,0,0,1-.13-.06.21.21,0,0,1-.07-.15.16.16,0,0,1,.11-.15l1-.47-1-.46a.15.15,0,0,1-.11-.16.19.19,0,0,1,.07-.13.17.17,0,0,1,.13-.07l.1,0,.86.64-.1-1.1a.18.18,0,0,1,.06-.14.22.22,0,0,1,.14,0,.19.19,0,0,1,.13,0,.17.17,0,0,1,.06.12v0l-.1,1.1.86-.64.09,0a.16.16,0,0,1,.14.07.18.18,0,0,1,.06.13c0,.09,0,.14-.09.16l-1,.46,1,.47a.16.16,0,0,1,.09.15.2.2,0,0,1-.06.15.18.18,0,0,1-.14.06.16.16,0,0,1-.09,0l-.86-.63.1,1.1h0a.16.16,0,0,1-.06.13.2.2,0,0,1-.13,0,.17.17,0,0,1-.14-.05.16.16,0,0,1-.06-.13l.1-1.1-.86.63A.17.17,0,0,1,253.47,129.94Z"/><path d="M248,138.27V138c.56,0,.84-.08.84-.23v-3.53a2.16,2.16,0,0,1-.88.16v-.24a1.67,1.67,0,0,0,1.26-.43h.09l0,0a.05.05,0,0,1,0,0v4c0,.15.28.23.84.23v.23Z"/><path d="M156.51,176.18a2.48,2.48,0,0,1,.09-.65c.06-.22.14-.47.24-.74s.19-.51.27-.72a1.71,1.71,0,0,0,.13-.58q0-.3-.21-.3a.76.76,0,0,0-.64.4,2.94,2.94,0,0,0-.37.89.08.08,0,0,1-.08.06h-.12s-.08,0-.08-.09v0a3.17,3.17,0,0,1,.49-1,1,1,0,0,1,.81-.45.82.82,0,0,1,.59.22.78.78,0,0,1,.24.58.91.91,0,0,1-.08.39l-.2.52c-.1.26-.18.48-.23.66s-.09.35-.13.51a2.94,2.94,0,0,0,0,.51,1,1,0,0,0,.14.54.49.49,0,0,0,.45.23,1.34,1.34,0,0,0,1.09-.77s0-.05,0-.08a.15.15,0,0,0,0-.07l.7-2.82a.44.44,0,0,1,.16-.22.35.35,0,0,1,.25-.1.32.32,0,0,1,.21.08.25.25,0,0,1,.09.2v.07l-.72,2.82a2.4,2.4,0,0,0-.06.48c0,.27.1.41.28.41s.36-.13.47-.39a5.91,5.91,0,0,0,.26-.89s0-.06.08-.06h.12a.07.07,0,0,1,.06,0l0,0a6.89,6.89,0,0,1-.2.72,1.44,1.44,0,0,1-.3.54.68.68,0,0,1-.53.24.9.9,0,0,1-.55-.17.85.85,0,0,1-.34-.45,1.71,1.71,0,0,1-.52.45,1.14,1.14,0,0,1-.62.17,1.28,1.28,0,0,1-.89-.3A1.09,1.09,0,0,1,156.51,176.18Z"/><path d="M161.55,172.44v-.17a.09.09,0,0,1,0-.05l1-1.16a4.32,4.32,0,0,0,.39-.43,2.77,2.77,0,0,0,.3-.4,2.82,2.82,0,0,0,.23-.46,1.64,1.64,0,0,0,.08-.5,1.4,1.4,0,0,0-.11-.53.88.88,0,0,0-.3-.4.82.82,0,0,0-.5-.15.87.87,0,0,0-.52.17.9.9,0,0,0-.33.46h.07a.35.35,0,0,1,.26.1.31.31,0,0,1,.11.26.35.35,0,0,1-.11.27.36.36,0,0,1-.52,0,.38.38,0,0,1-.1-.27,1.27,1.27,0,0,1,.09-.47,1,1,0,0,1,.28-.39,1.18,1.18,0,0,1,.4-.27,1.12,1.12,0,0,1,.48-.1,1.59,1.59,0,0,1,.72.17,1.32,1.32,0,0,1,.53.46,1.25,1.25,0,0,1,.19.7,1.17,1.17,0,0,1-.13.55,1.58,1.58,0,0,1-.33.48,6.15,6.15,0,0,1-.51.5,5.06,5.06,0,0,0-.41.37l-.77.72h1.45l.34,0a1.63,1.63,0,0,0,.16-.62h.2l-.2,1.2Z"/><path d="M165.37,173.66a.09.09,0,0,1,0-.06,1.6,1.6,0,0,0,.38-.54,1.53,1.53,0,0,0,.13-.64v-.08a.36.36,0,0,1-.27.1.33.33,0,0,1-.26-.11.37.37,0,0,1,.26-.63.36.36,0,0,1,.35.23,1.13,1.13,0,0,1,.1.49,1.71,1.71,0,0,1-.15.71,1.91,1.91,0,0,1-.42.61l0,0a.11.11,0,0,1-.07,0A.1.1,0,0,1,165.37,173.66Z"/><path d="M167.28,171.59a.17.17,0,0,1-.13-.07.21.21,0,0,1-.07-.14.18.18,0,0,1,.11-.16l1-.46-1-.46a.16.16,0,0,1-.11-.17.21.21,0,0,1,.07-.13.19.19,0,0,1,.13-.06.16.16,0,0,1,.1,0l.86.63-.1-1.1a.16.16,0,0,1,.06-.13.18.18,0,0,1,.14-.06.16.16,0,0,1,.13.06.14.14,0,0,1,.06.12h0l-.1,1.1.86-.63a.15.15,0,0,1,.09,0,.18.18,0,0,1,.14.06.19.19,0,0,1,.06.13c0,.09,0,.15-.09.17l-1,.46,1,.46a.18.18,0,0,1,.09.16.2.2,0,0,1-.06.14.16.16,0,0,1-.14.07.12.12,0,0,1-.09,0l-.86-.63.1,1.1h0a.15.15,0,0,1-.06.13.21.21,0,0,1-.13.05.22.22,0,0,1-.14-.05.18.18,0,0,1-.06-.14l.1-1.1-.86.63A.13.13,0,0,1,167.28,171.59Z"/><path d="M161.83,179.92v-.24c.56,0,.84-.07.84-.22v-3.54a2,2,0,0,1-.88.16v-.23a1.71,1.71,0,0,0,1.26-.43h.13l0,0v4c0,.15.28.22.84.22v.24Z"/><path d="M97,221.36a2.43,2.43,0,0,1,.09-.65q.09-.35.24-.75c.1-.27.19-.51.27-.71a2.12,2.12,0,0,0,.13-.59c0-.19-.07-.29-.22-.29a.72.72,0,0,0-.63.4,2.83,2.83,0,0,0-.37.89.09.09,0,0,1-.08.06h-.12c-.06,0-.08,0-.08-.1v0a3.42,3.42,0,0,1,.48-1,1,1,0,0,1,.82-.45.84.84,0,0,1,.59.23.75.75,0,0,1,.24.58,1.08,1.08,0,0,1-.08.38c0,.08-.1.25-.2.52s-.18.49-.23.66-.09.35-.13.52a2.21,2.21,0,0,0,0,.51,1,1,0,0,0,.13.54.48.48,0,0,0,.45.22,1.3,1.3,0,0,0,1.09-.76.31.31,0,0,0,0-.08s0-.05,0-.07l.7-2.83a.4.4,0,0,1,.15-.22.43.43,0,0,1,.26-.09.27.27,0,0,1,.2.07.26.26,0,0,1,.09.21v.07l-.71,2.81a2.4,2.4,0,0,0-.06.48c0,.27.09.41.28.41s.36-.13.46-.39A4.47,4.47,0,0,0,101,221a.08.08,0,0,1,.08-.06h.12a.07.07,0,0,1,0,0,.09.09,0,0,1,0,.06c-.07.28-.14.52-.2.72a1.34,1.34,0,0,1-.31.54.66.66,0,0,1-.52.24.94.94,0,0,1-.55-.17.88.88,0,0,1-.34-.45,2,2,0,0,1-.52.45,1.23,1.23,0,0,1-.62.17,1.26,1.26,0,0,1-.9-.31A1.11,1.11,0,0,1,97,221.36Z"/><path d="M102.32,217.62v-.24c.57,0,.85-.07.85-.22v-3.54a2,2,0,0,1-.88.16v-.23a1.66,1.66,0,0,0,1.25-.43h.14a.09.09,0,0,1,0,.05v4c0,.15.29.22.85.22v.24Z"/><path d="M105.87,218.84a.08.08,0,0,1,0-.06,1.52,1.52,0,0,0,.38-.54,1.62,1.62,0,0,0,.14-.65v-.08a.37.37,0,0,1-.27.11.38.38,0,0,1-.37-.38.33.33,0,0,1,.11-.26.35.35,0,0,1,.26-.1.36.36,0,0,1,.35.22,1.3,1.3,0,0,1,.1.49,1.71,1.71,0,0,1-.15.71,2.1,2.1,0,0,1-.43.62h0a.09.09,0,0,1-.07,0A.07.07,0,0,1,105.87,218.84Z"/><path d="M107.78,216.76a.18.18,0,0,1-.13-.06.21.21,0,0,1-.07-.15.16.16,0,0,1,.11-.15l1-.47-1-.46a.15.15,0,0,1-.11-.16.19.19,0,0,1,.07-.14.18.18,0,0,1,.13-.06l.09,0,.87.63-.1-1.1a.15.15,0,0,1,0-.13.19.19,0,0,1,.14-.05.17.17,0,0,1,.14.05.17.17,0,0,1,0,.12h0l-.09,1.1.85-.63.1,0a.2.2,0,0,1,.14.06.22.22,0,0,1,.06.14.15.15,0,0,1-.1.16l-1,.46,1,.47a.15.15,0,0,1,.1.15.24.24,0,0,1-.06.15.2.2,0,0,1-.14.06l-.1,0-.85-.64.09,1.1v0a.18.18,0,0,1-.06.13.2.2,0,0,1-.13,0,.24.24,0,0,1-.14,0,.17.17,0,0,1,0-.14l.1-1.1-.87.64A.12.12,0,0,1,107.78,216.76Z"/><path d="M102.32,225.09v-.24c.57,0,.85-.07.85-.22v-3.54a2,2,0,0,1-.88.17V221a1.66,1.66,0,0,0,1.25-.43h.1a0,0,0,0,1,0,0s0,0,0,0v4c0,.15.29.22.85.22v.24Z"/><path d="M330.13,39.2a2.54,2.54,0,0,1,.09-.65c.06-.22.14-.47.24-.74s.19-.51.27-.71a1.81,1.81,0,0,0,.13-.59c0-.2-.07-.29-.21-.29a.74.74,0,0,0-.64.39,3,3,0,0,0-.37.9.08.08,0,0,1-.08.05h-.12c-.05,0-.08,0-.08-.09v0a3.22,3.22,0,0,1,.49-1,1,1,0,0,1,.81-.45.78.78,0,0,1,.59.23.75.75,0,0,1,.24.58.9.9,0,0,1-.08.38l-.2.52c-.1.26-.17.49-.23.66s-.09.35-.12.52a2.1,2.1,0,0,0-.06.51,1,1,0,0,0,.14.54.5.5,0,0,0,.45.22,1.33,1.33,0,0,0,1.09-.76s0-.06,0-.09V39.2l.71-2.82a.37.37,0,0,1,.15-.22.42.42,0,0,1,.26-.1.32.32,0,0,1,.2.08.26.26,0,0,1,.09.21v.07l-.72,2.81a2.4,2.4,0,0,0-.06.48c0,.27.1.41.29.41s.35-.13.46-.39a5.59,5.59,0,0,0,.26-.89.09.09,0,0,1,.08-.06h.12s0,0,.06,0a.07.07,0,0,1,0,.06c-.07.28-.13.52-.2.72a1.44,1.44,0,0,1-.3.54.68.68,0,0,1-.53.24,1,1,0,0,1-.55-.17.94.94,0,0,1-.34-.45,2.17,2.17,0,0,1-.51.45,1.35,1.35,0,0,1-1.52-.14A1.12,1.12,0,0,1,330.13,39.2Z"/><path d="M335.24,34.12h1.6V31.73Zm-.22.23v-.23L337.1,31a.09.09,0,0,1,.07,0h.1c.05,0,.08,0,.08.08v3.07H338v.23h-.65V35c0,.09.06.15.2.18a2,2,0,0,0,.45,0v.24h-1.86v-.24a2.19,2.19,0,0,0,.46,0c.13,0,.2-.09.2-.18v-.66Z"/><path d="M339,36.68s0,0,0,0a1.83,1.83,0,0,0,.38-.54,1.62,1.62,0,0,0,.14-.65v-.08a.39.39,0,0,1-.27.11.36.36,0,0,1-.27-.12.36.36,0,0,1,0-.52.38.38,0,0,1,.27-.1.34.34,0,0,1,.34.22,1.13,1.13,0,0,1,.1.49,1.71,1.71,0,0,1-.15.71,2.06,2.06,0,0,1-.42.62h0a.11.11,0,0,1-.07,0A.09.09,0,0,1,339,36.68Z"/><path d="M342,35.44a.6.6,0,0,0,.56-.38,2.43,2.43,0,0,0,.23-.86c0-.31,0-.64,0-1a9.11,9.11,0,0,0,0-.93,2.08,2.08,0,0,0-.23-.78.63.63,0,0,0-1.13,0,2.26,2.26,0,0,0-.22.78,9.11,9.11,0,0,0,0,.93c0,.25,0,.49,0,.71a4.21,4.21,0,0,0,.09.69,1.62,1.62,0,0,0,.25.6A.55.55,0,0,0,342,35.44Zm0,.18a1.1,1.1,0,0,1-1.12-.69,4,4,0,0,1-.3-1.62,5.47,5.47,0,0,1,.11-1.1,1.86,1.86,0,0,1,.42-.88A1.12,1.12,0,0,1,342,31a1.19,1.19,0,0,1,.73.21,1.5,1.5,0,0,1,.43.56,3.13,3.13,0,0,1,.21.74,7.26,7.26,0,0,1,.05.83,5.37,5.37,0,0,1-.11,1.09,1.88,1.88,0,0,1-.42.86A1.12,1.12,0,0,1,342,35.62Z"/><path d="M335.17,42.94v-.18a.11.11,0,0,1,0,0l1-1.16.4-.42c.09-.12.19-.25.29-.4a2.47,2.47,0,0,0,.23-.46,1.7,1.7,0,0,0,.08-.51,1.44,1.44,0,0,0-.11-.53.94.94,0,0,0-.3-.4.79.79,0,0,0-.49-.15.85.85,0,0,0-.53.18.9.9,0,0,0-.33.46l.07,0a.45.45,0,0,1,.27.1.37.37,0,0,1,.11.27.38.38,0,0,1-.38.37.33.33,0,0,1-.26-.11.35.35,0,0,1-.1-.26,1.23,1.23,0,0,1,.09-.47,1.21,1.21,0,0,1,.28-.4,1.18,1.18,0,0,1,.4-.27,1.28,1.28,0,0,1,.48-.09,1.58,1.58,0,0,1,.72.16,1.33,1.33,0,0,1,.53.46,1.27,1.27,0,0,1,.19.7,1.21,1.21,0,0,1-.13.56,2.11,2.11,0,0,1-.32.48c-.14.14-.31.31-.52.49l-.41.37-.77.73h1.45a.89.89,0,0,0,.34,0,1.56,1.56,0,0,0,.16-.62h.2l-.2,1.21Z"/><path d="M255.1,67.36a2.54,2.54,0,0,1,.09-.65c.06-.22.14-.47.24-.74l.27-.72a1.71,1.71,0,0,0,.13-.58q0-.3-.21-.3a.76.76,0,0,0-.64.4,3,3,0,0,0-.37.89.08.08,0,0,1-.08.06h-.12s-.08,0-.08-.09v0a3.12,3.12,0,0,1,.49-1,1,1,0,0,1,.81-.45.8.8,0,0,1,.59.23.75.75,0,0,1,.24.58.9.9,0,0,1-.08.38c0,.08-.1.25-.2.52s-.18.48-.23.66-.09.35-.13.52a2.76,2.76,0,0,0,0,.51,1,1,0,0,0,.14.53.49.49,0,0,0,.45.23,1.35,1.35,0,0,0,1.09-.76s0-.06,0-.09a.15.15,0,0,0,0-.07l.7-2.82a.44.44,0,0,1,.16-.22.35.35,0,0,1,.25-.1.32.32,0,0,1,.21.08.25.25,0,0,1,.09.2v.07l-.72,2.82a2.4,2.4,0,0,0-.06.48c0,.27.1.41.28.41s.36-.13.47-.39a5.59,5.59,0,0,0,.26-.89s0-.06.08-.06h.12a.07.07,0,0,1,.06,0,.14.14,0,0,1,0,.06c-.07.28-.13.52-.2.72a1.4,1.4,0,0,1-.3.53.66.66,0,0,1-.53.25,1,1,0,0,1-.55-.17.92.92,0,0,1-.34-.46,1.89,1.89,0,0,1-.52.46,1.23,1.23,0,0,1-.62.17,1.28,1.28,0,0,1-.89-.31A1.09,1.09,0,0,1,255.1,67.36Z"/><path d="M260.21,62.28h1.6V59.89Zm-.23.23v-.23l2.09-3.12a.1.1,0,0,1,.07,0h.09a.08.08,0,0,1,.09.09v3.07H263v.23h-.65v.66c0,.09.06.15.2.18a2,2,0,0,0,.45,0v.23h-1.86v-.23a2.19,2.19,0,0,0,.46,0c.13,0,.2-.09.2-.18v-.66Z"/><path d="M264,64.84a.09.09,0,0,1,0-.06,1.66,1.66,0,0,0,.38-.53,1.61,1.61,0,0,0,.13-.65v-.08a.36.36,0,0,1-.27.1.33.33,0,0,1-.26-.11.36.36,0,0,1,0-.52.35.35,0,0,1,.26-.1.35.35,0,0,1,.35.22,1.13,1.13,0,0,1,.1.49,1.71,1.71,0,0,1-.15.71,1.91,1.91,0,0,1-.42.61l0,0a.11.11,0,0,1-.07,0A.1.1,0,0,1,264,64.84Z"/><path d="M265.86,63.62v-.23c.56,0,.85-.07.85-.22V59.63a2,2,0,0,1-.88.16v-.23a1.67,1.67,0,0,0,1.25-.44h.09l.05,0a.06.06,0,0,1,0,0v4c0,.15.28.22.85.22v.23Z"/><path d="M260.14,71.1v-.18a.09.09,0,0,1,0,0l1-1.16q.26-.25.39-.42a4.63,4.63,0,0,0,.3-.4,3.39,3.39,0,0,0,.23-.47,1.59,1.59,0,0,0,.08-.5,1.44,1.44,0,0,0-.11-.53.94.94,0,0,0-.3-.4.87.87,0,0,0-1,0,.9.9,0,0,0-.33.46l.07,0a.4.4,0,0,1,.26.1.33.33,0,0,1,.11.27.33.33,0,0,1-.11.26.36.36,0,0,1-.52,0,.35.35,0,0,1-.1-.26,1.23,1.23,0,0,1,.09-.47,1.08,1.08,0,0,1,.28-.4,1.18,1.18,0,0,1,.4-.27,1.28,1.28,0,0,1,.48-.09,1.58,1.58,0,0,1,.72.16,1.32,1.32,0,0,1,.53.46,1.25,1.25,0,0,1,.19.7,1.21,1.21,0,0,1-.13.56,1.87,1.87,0,0,1-.33.48,6.23,6.23,0,0,1-.51.49l-.41.37-.77.73h1.45a.89.89,0,0,0,.34,0,1.56,1.56,0,0,0,.16-.62h.2l-.2,1.21Z"/><path d="M192.55,109.37a2.48,2.48,0,0,1,.09-.65q.09-.34.24-.75c.1-.27.19-.51.27-.71a1.81,1.81,0,0,0,.13-.59c0-.19-.07-.29-.21-.29a.74.74,0,0,0-.64.4,2.83,2.83,0,0,0-.37.89.08.08,0,0,1-.08.06h-.12c-.05,0-.08,0-.08-.1v0a3.22,3.22,0,0,1,.49-1,1,1,0,0,1,.81-.45.82.82,0,0,1,.59.23.75.75,0,0,1,.24.58,1,1,0,0,1-.08.39l-.2.51c-.1.27-.18.49-.23.66s-.09.35-.12.52a2.22,2.22,0,0,0-.06.51,1,1,0,0,0,.14.54.48.48,0,0,0,.45.22,1.31,1.31,0,0,0,1.09-.76s0-.06,0-.08v-.07l.7-2.83a.48.48,0,0,1,.16-.22.4.4,0,0,1,.25-.09.31.31,0,0,1,.21.07.26.26,0,0,1,.09.21v.07l-.72,2.81a2.4,2.4,0,0,0-.06.48c0,.27.1.41.29.41s.35-.13.46-.39a5.29,5.29,0,0,0,.26-.89.09.09,0,0,1,.08-.06h.12s0,0,.06,0a.07.07,0,0,1,0,.06c-.07.28-.13.52-.2.72a1.44,1.44,0,0,1-.3.54.68.68,0,0,1-.53.24,1,1,0,0,1-.55-.17.94.94,0,0,1-.34-.45,2.17,2.17,0,0,1-.51.45,1.29,1.29,0,0,1-.63.17,1.24,1.24,0,0,1-.89-.31A1.11,1.11,0,0,1,192.55,109.37Z"/><path d="M197.66,104.28h1.6v-2.39Zm-.22.23v-.23l2.08-3.12a.09.09,0,0,1,.07,0h.1c.05,0,.08,0,.08.08v3.07h.65v.23h-.65v.66c0,.09.06.15.2.18a2,2,0,0,0,.45,0v.24h-1.86v-.24a2.19,2.19,0,0,0,.46,0c.13,0,.2-.09.2-.18v-.66Z"/><path d="M201.42,106.85s0,0,0-.06a1.83,1.83,0,0,0,.38-.54,1.61,1.61,0,0,0,.13-.65v-.08a.36.36,0,0,1-.26.11.39.39,0,0,1-.27-.11.4.4,0,0,1-.11-.27.36.36,0,0,1,.11-.26.38.38,0,0,1,.27-.1.35.35,0,0,1,.34.22,1.13,1.13,0,0,1,.1.49,1.71,1.71,0,0,1-.15.71,2,2,0,0,1-.42.62h0a.11.11,0,0,1-.07,0A.09.09,0,0,1,201.42,106.85Z"/><path d="M203.33,104.77a.2.2,0,0,1-.14-.06.22.22,0,0,1-.06-.15.15.15,0,0,1,.1-.15l1-.47-1-.46a.15.15,0,0,1-.1-.16.22.22,0,0,1,.06-.14.2.2,0,0,1,.14-.06l.09,0,.87.64-.11-1.11a.16.16,0,0,1,.06-.13.19.19,0,0,1,.14-.05.15.15,0,0,1,.13.05.16.16,0,0,1,.06.12h0l-.1,1.11.86-.64.09,0a.18.18,0,0,1,.14.06.22.22,0,0,1,.06.14.15.15,0,0,1-.09.16l-1,.46,1,.47a.16.16,0,0,1,.09.15.22.22,0,0,1-.06.15.18.18,0,0,1-.14.06.16.16,0,0,1-.09,0l-.86-.64.1,1.1v0a.18.18,0,0,1-.06.13.2.2,0,0,1-.13,0,.24.24,0,0,1-.14,0,.18.18,0,0,1-.06-.14l.11-1.1-.87.64A.14.14,0,0,1,203.33,104.77Z"/><path d="M197.59,113.1v-.18a.06.06,0,0,1,0,0l1-1.16c.17-.18.3-.32.39-.43a3.47,3.47,0,0,0,.3-.4,2.47,2.47,0,0,0,.23-.46,1.7,1.7,0,0,0,.08-.51,1.35,1.35,0,0,0-.11-.52.92.92,0,0,0-.3-.41.79.79,0,0,0-.49-.14.84.84,0,0,0-.53.17.9.9,0,0,0-.33.46H198a.35.35,0,0,1,.26.1.31.31,0,0,1,.12.26.34.34,0,0,1-.12.26.36.36,0,0,1-.52,0,.35.35,0,0,1-.1-.26,1.27,1.27,0,0,1,.09-.47,1.21,1.21,0,0,1,.28-.4,1.56,1.56,0,0,1,.4-.27,1.28,1.28,0,0,1,.48-.09,1.58,1.58,0,0,1,.72.16,1.34,1.34,0,0,1,.53.47,1.23,1.23,0,0,1,.19.69,1.21,1.21,0,0,1-.13.56,1.75,1.75,0,0,1-.32.48c-.14.14-.31.31-.52.49l-.41.37-.77.73h1.45a.89.89,0,0,0,.34,0,1.56,1.56,0,0,0,.16-.62h.2l-.2,1.21Z"/><path class="cls-3" d="M316,129.44s0-.06,0-.08l1.42-5.64a2,2,0,0,0,0-.27q0-.15-.63-.15c-.07,0-.11,0-.11-.13a.22.22,0,0,0,0-.08.34.34,0,0,1,0-.1.09.09,0,0,1,.07,0l1.31-.1h0l0,0,0,0a.26.26,0,0,1,0,.07l-1,4.08a3,3,0,0,0,.89-.7,10.82,10.82,0,0,1,.83-.8,1.22,1.22,0,0,1,.77-.24.65.65,0,0,1,.46.18.62.62,0,0,1,.19.46.66.66,0,0,1-.07.32.59.59,0,0,1-.2.24.51.51,0,0,1-.3.09.45.45,0,0,1-.27-.1.35.35,0,0,1-.11-.26.54.54,0,0,1,.17-.39.58.58,0,0,1,.4-.16.38.38,0,0,0-.3-.13,1,1,0,0,0-.55.17,3.25,3.25,0,0,0-.58.48l-.57.57a2.57,2.57,0,0,1-.48.39,2.87,2.87,0,0,1,1,.3.78.78,0,0,1,.42.73,1.38,1.38,0,0,1,0,.25,2.49,2.49,0,0,0-.09.58c0,.29.1.44.3.44a.58.58,0,0,0,.54-.38,4.74,4.74,0,0,0,.3-.9s0-.06.08-.06h.12l.06,0a.14.14,0,0,1,0,.06v0q-.37,1.47-1.14,1.47a1,1,0,0,1-.49-.12.89.89,0,0,1-.32-.35,1.15,1.15,0,0,1-.11-.5,2,2,0,0,1,0-.33.52.52,0,0,0,0-.21.62.62,0,0,0-.33-.57,2.32,2.32,0,0,0-.77-.24l-.49,2a.51.51,0,0,1-.15.23.4.4,0,0,1-.25.09.29.29,0,0,1-.22-.08A.25.25,0,0,1,316,129.44Z"/><path class="cls-3" d="M321.4,123.47H323v-2.4Zm-.23.23v-.23l2.09-3.12a.08.08,0,0,1,.07,0h.09a.08.08,0,0,1,.09.09v3.07h.65v.23h-.65v.66c0,.09.06.15.2.18a2,2,0,0,0,.45,0v.23H322.3v-.23a2.19,2.19,0,0,0,.46,0c.13,0,.2-.09.2-.18v-.66Z"/><path class="cls-3" d="M325.16,126a.07.07,0,0,1,0-.06,1.6,1.6,0,0,0,.38-.54,1.53,1.53,0,0,0,.13-.64v-.08a.36.36,0,0,1-.27.1.34.34,0,0,1-.26-.11.36.36,0,0,1,0-.52.38.38,0,0,1,.26-.11.36.36,0,0,1,.35.23,1.13,1.13,0,0,1,.1.49,1.71,1.71,0,0,1-.15.71,1.91,1.91,0,0,1-.42.61l0,0a.11.11,0,0,1-.07,0A.09.09,0,0,1,325.16,126Z"/><path class="cls-3" d="M327.06,124a.17.17,0,0,1-.13-.07.2.2,0,0,1-.06-.14.17.17,0,0,1,.1-.16l1-.46-1-.46c-.07,0-.1-.08-.1-.17a.21.21,0,0,1,.19-.19.16.16,0,0,1,.1,0l.87.63-.11-1.1a.16.16,0,0,1,.06-.13.18.18,0,0,1,.14-.06.16.16,0,0,1,.13.06.14.14,0,0,1,.06.12h0l-.1,1.1.86-.63a.15.15,0,0,1,.09,0,.18.18,0,0,1,.14.06.19.19,0,0,1,.06.13c0,.09,0,.15-.09.17l-1,.46,1,.46a.18.18,0,0,1,.09.16.2.2,0,0,1-.06.14.16.16,0,0,1-.14.07.12.12,0,0,1-.09,0l-.86-.63.1,1.1h0a.15.15,0,0,1-.06.13.21.21,0,0,1-.13,0,.22.22,0,0,1-.14,0,.18.18,0,0,1-.06-.14l.11-1.1-.87.63A.13.13,0,0,1,327.06,124Z"/><path class="cls-3" d="M321.29,132.29v-.24c.57,0,.85-.07.85-.22v-3.54a2,2,0,0,1-.88.16v-.23a1.7,1.7,0,0,0,1.25-.43h.14a.06.06,0,0,1,0,0v4c0,.15.29.22.85.22v.24Z"/><rect class="cls-15" x="269.18" y="95.12" width="15.44" height="14.73"/><path class="cls-3" d="M279.48,102.23a.06.06,0,0,1,0-.06,1.83,1.83,0,0,0,.38-.54A1.56,1.56,0,0,0,280,101v-.09a.37.37,0,0,1-.27.11.38.38,0,0,1-.26-.11.39.39,0,0,1-.11-.27.34.34,0,0,1,.11-.25.38.38,0,0,1,.26-.11.35.35,0,0,1,.35.22,1.18,1.18,0,0,1,.1.5,1.66,1.66,0,0,1-.15.7,2,2,0,0,1-.42.62h0a.11.11,0,0,1-.07,0S279.48,102.25,279.48,102.23Z"/><path class="cls-3" d="M270.31,105.64a.54.54,0,0,1,0-.08l1.42-5.64c0-.12,0-.21.05-.27s-.21-.15-.63-.15c-.07,0-.11,0-.11-.13l0-.09a.19.19,0,0,1,0-.09.09.09,0,0,1,.07,0l1.31-.11h0s0,0,0,0l0,0a.2.2,0,0,1,0,.07l-1,4.08a3.1,3.1,0,0,0,.89-.71,10.29,10.29,0,0,1,.83-.79,1.17,1.17,0,0,1,.77-.25.63.63,0,0,1,.46.19.6.6,0,0,1,.19.46.71.71,0,0,1-.07.32.56.56,0,0,1-.2.23.51.51,0,0,1-.3.09.39.39,0,0,1-.27-.1.34.34,0,0,1-.11-.25.51.51,0,0,1,.17-.39.53.53,0,0,1,.39-.16.32.32,0,0,0-.29-.13,1,1,0,0,0-.55.16,3.25,3.25,0,0,0-.58.48l-.57.58a2.57,2.57,0,0,1-.48.39,2.55,2.55,0,0,1,1,.3.78.78,0,0,1,.42.73.85.85,0,0,1,0,.24,3.12,3.12,0,0,0-.08.59c0,.29.1.43.3.43a.57.57,0,0,0,.54-.38,4.31,4.31,0,0,0,.3-.9.09.09,0,0,1,.08,0h.12a.07.07,0,0,1,.06,0,.11.11,0,0,1,0,.06v0c-.25,1-.63,1.48-1.14,1.48a.9.9,0,0,1-.49-.13.87.87,0,0,1-.32-.34,1.18,1.18,0,0,1-.11-.5,2,2,0,0,1,0-.33.52.52,0,0,0,0-.21.62.62,0,0,0-.34-.57,1.84,1.84,0,0,0-.76-.24l-.5,2a.45.45,0,0,1-.14.24.4.4,0,0,1-.25.09.33.33,0,0,1-.22-.08A.27.27,0,0,1,270.31,105.64Z"/><path class="cls-3" d="M275.73,99.66h1.6V97.27Zm-.23.24v-.24l2.09-3.12a.09.09,0,0,1,.07,0h.09c.06,0,.09,0,.09.08v3.07h.65v.24h-.65v.65c0,.1.06.16.2.18a2,2,0,0,0,.45,0V101h-1.86v-.24a2.19,2.19,0,0,0,.46,0c.13,0,.2-.08.2-.18V99.9Z"/><path class="cls-3" d="M282.45,101a.59.59,0,0,0,.56-.39,2.38,2.38,0,0,0,.23-.86c0-.31,0-.64,0-1a8.86,8.86,0,0,0,0-.93A2,2,0,0,0,283,97a.62.62,0,0,0-1.13,0,2.14,2.14,0,0,0-.22.78,8.86,8.86,0,0,0,0,.93c0,.25,0,.48,0,.71a5.58,5.58,0,0,0,.1.68,1.49,1.49,0,0,0,.25.6A.56.56,0,0,0,282.45,101Zm0,.17a1.12,1.12,0,0,1-1.13-.68,4.24,4.24,0,0,1-.29-1.63,5.47,5.47,0,0,1,.11-1.1,1.9,1.9,0,0,1,.42-.88,1.3,1.3,0,0,1,1.62-.14,1.43,1.43,0,0,1,.43.56,2.52,2.52,0,0,1,.2.74,5.36,5.36,0,0,1,.06.82,5.29,5.29,0,0,1-.11,1.09,1.79,1.79,0,0,1-.42.86A1.12,1.12,0,0,1,282.45,101.16Z"/><path class="cls-3" d="M275.76,108.48v-.15s0,0,0,0l.88-1A4.57,4.57,0,0,0,277,107a1.78,1.78,0,0,0,.25-.33,1.75,1.75,0,0,0,.19-.39,1.25,1.25,0,0,0,.07-.43,1.12,1.12,0,0,0-.09-.44.75.75,0,0,0-.25-.35.7.7,0,0,0-.42-.12.71.71,0,0,0-.44.15.75.75,0,0,0-.28.38h.06a.31.31,0,0,1,.22.09.29.29,0,0,1,0,.44.28.28,0,0,1-.22.1.27.27,0,0,1-.22-.1.29.29,0,0,1-.09-.22,1,1,0,0,1,.08-.39,1,1,0,0,1,.23-.34,1.12,1.12,0,0,1,.35-.23,1.06,1.06,0,0,1,.4-.08,1.4,1.4,0,0,1,.61.14,1,1,0,0,1,.44.39,1.09,1.09,0,0,1,.06,1.06,1.86,1.86,0,0,1-.28.41,5.94,5.94,0,0,1-.43.41l-.35.31-.65.62h1.22a1.06,1.06,0,0,0,.29,0,1.35,1.35,0,0,0,.14-.53H278l-.17,1Z"/><rect class="cls-15" x="244.27" y="101.24" width="12.42" height="6.86"/><path class="cls-5" d="M245.24,105.58a1.81,1.81,0,0,0,.16.76,1.31,1.31,0,0,0,.47.52,1.38,1.38,0,0,0,.72.19,1.56,1.56,0,0,0,.82-.24,2.27,2.27,0,0,0,.69-.62,2.4,2.4,0,0,0,.38-.83.05.05,0,0,1,.06,0h.08a0,0,0,0,1,0,0,.08.08,0,0,1,0,0h0a2.59,2.59,0,0,1-.45.95,2.51,2.51,0,0,1-.8.69,2,2,0,0,1-1,.26,1.9,1.9,0,0,1-.95-.25,1.76,1.76,0,0,1-.67-.71,2.13,2.13,0,0,1-.24-1,3,3,0,0,1,.26-1.2,4.21,4.21,0,0,1,.69-1.06,3.47,3.47,0,0,1,1-.74,2.57,2.57,0,0,1,1.12-.28,1.27,1.27,0,0,1,.44.08,1.22,1.22,0,0,1,.38.22,1.17,1.17,0,0,1,.29.34l.55-.62s0,0,0,0h0s0,0,0,0,0,0,0,.05l-.46,2s0,0-.06,0h-.12s-.05,0-.05-.08a3.79,3.79,0,0,0,0-.38,2.09,2.09,0,0,0-.11-.67,1.15,1.15,0,0,0-.36-.5.94.94,0,0,0-.58-.19,1.84,1.84,0,0,0-1,.3,2.79,2.79,0,0,0-.79.78,4.14,4.14,0,0,0-.5,1.06A3.92,3.92,0,0,0,245.24,105.58Z"/><path class="cls-5" d="M251.83,105.25h1.53l-.2-2.35Zm-1.76,1.89s-.06,0-.06-.09.05-.16.09-.16a.92.92,0,0,0,.48-.12,1.1,1.1,0,0,0,.35-.36v0l2.44-4.35a.16.16,0,0,1,.13-.07h.13l0,0a.08.08,0,0,1,0,0l.42,4.68a.42.42,0,0,0,0,.09s.21.08.51.08c0,0,.07,0,.07.09a.39.39,0,0,1,0,.13s0,0-.08,0h-1.71s-.06,0-.06-.09,0-.16.09-.16c.36,0,.55-.07.58-.2l-.11-1.19H251.7l-.55,1a.37.37,0,0,0-.05.18.17.17,0,0,0,.12.18.51.51,0,0,0,.25.06c.05,0,.07,0,.07.09a1.11,1.11,0,0,1,0,.13s0,0-.07,0Z"/></g><g id="Axis"><line class="cls-16" x1="46.1" y1="18.6" x2="46.1" y2="276.38"/><polygon class="cls-17" points="44.65 19.59 46.1 14.17 47.55 19.59 44.65 19.59"/><line class="cls-16" x1="39.01" y1="269.29" x2="360.57" y2="269.29"/><polygon class="cls-17" points="359.58 270.74 365 269.29 359.58 267.84 359.58 270.74"/><line class="cls-18" x1="43.26" y1="142.13" x2="48.93" y2="142.13"/><line class="cls-18" x1="43.26" y1="184.34" x2="48.93" y2="184.34"/><line class="cls-18" x1="43.26" y1="226.59" x2="48.93" y2="226.59"/><path class="cls-19" d="M36,24a.8.8,0,0,0,.51.16c.27,0,.49-.29.65-.89.07-.28.27-1.22.58-2.82l.51-2.76h-1c-.08,0-.11,0-.11-.15s.07-.24.14-.24h1l.13-.73c.05-.23.09-.42.13-.59s.07-.31.11-.45a3.46,3.46,0,0,1,.2-.47,1.59,1.59,0,0,1,.51-.61,1.16,1.16,0,0,1,.7-.24,1.13,1.13,0,0,1,.49.1.94.94,0,0,1,.38.27.66.66,0,0,1,.15.43.69.69,0,0,1-.19.49.6.6,0,0,1-.46.21.44.44,0,0,1-.31-.11.38.38,0,0,1-.13-.3.65.65,0,0,1,.59-.63.81.81,0,0,0-.52-.16.45.45,0,0,0-.32.15.83.83,0,0,0-.2.35c-.05.19-.15.7-.31,1.55l-.14.74h1.16c.07,0,.11,0,.11.15s0,0,0,.09a.23.23,0,0,1,0,.11.08.08,0,0,1-.07,0H39l-.52,2.75c-.07.39-.14.8-.23,1.21a9.52,9.52,0,0,1-.36,1.28A3.65,3.65,0,0,1,37.3,24a1.09,1.09,0,0,1-.85.44,1.18,1.18,0,0,1-.69-.22.72.72,0,0,1-.11-1.07.59.59,0,0,1,.46-.21.42.42,0,0,1,.31.11.35.35,0,0,1,.13.3.63.63,0,0,1-.18.43A.56.56,0,0,1,36,24Z"/><path class="cls-19" d="M201.08,277.57a3.37,3.37,0,0,1,.1-.75,8.49,8.49,0,0,1,.28-.86c.12-.32.22-.6.3-.83a2.1,2.1,0,0,0,.16-.68c0-.22-.09-.33-.25-.33a.83.83,0,0,0-.73.46,3.34,3.34,0,0,0-.43,1,.09.09,0,0,1-.09.07h-.13c-.07,0-.1,0-.1-.11v0a3.66,3.66,0,0,1,.55-1.2,1.14,1.14,0,0,1,.95-.51,1,1,0,0,1,.68.26.9.9,0,0,1,.27.66,1.24,1.24,0,0,1-.09.45c0,.09-.11.29-.22.6s-.21.56-.27.76a4.44,4.44,0,0,0-.16.6,2.86,2.86,0,0,0-.06.58,1.19,1.19,0,0,0,.16.62.55.55,0,0,0,.52.26,1.51,1.51,0,0,0,1.26-.88s0-.06,0-.08a.28.28,0,0,0,0-.09l.81-3.26a.5.5,0,0,1,.47-.36.41.41,0,0,1,.24.08.29.29,0,0,1,.1.23v.1l-.82,3.23a2.64,2.64,0,0,0-.07.55c0,.32.11.48.32.48a.59.59,0,0,0,.54-.44,6,6,0,0,0,.3-1,.09.09,0,0,1,.09-.07h.14a.08.08,0,0,1,.07,0,.11.11,0,0,1,0,.07c-.08.32-.16.6-.23.83a1.66,1.66,0,0,1-.36.63.78.78,0,0,1-.61.28,1.1,1.1,0,0,1-.63-.2,1,1,0,0,1-.39-.53,2.27,2.27,0,0,1-.59.53,1.56,1.56,0,0,1-1.76-.16A1.32,1.32,0,0,1,201.08,277.57Z"/><line class="cls-18" x1="43.26" y1="99.84" x2="48.93" y2="99.84"/><path d="M34.56,231.44a.67.67,0,0,0,.43.14c.23,0,.42-.26.57-.77.06-.25.22-1.06.5-2.45L36.5,226h-.83c-.07,0-.11,0-.11-.13s.08-.22.13-.22h.87l.12-.64c0-.19.07-.36.1-.5s.07-.27.1-.39a2.57,2.57,0,0,1,.17-.41,1.5,1.5,0,0,1,.45-.52,1,1,0,0,1,.61-.21,1,1,0,0,1,.42.08.78.78,0,0,1,.33.24.59.59,0,0,1,.12.37.6.6,0,0,1-.16.42.5.5,0,0,1-.4.19.4.4,0,0,1-.26-.1.3.3,0,0,1-.11-.26.48.48,0,0,1,.14-.36.53.53,0,0,1,.36-.19.72.72,0,0,0-.44-.14.4.4,0,0,0-.29.14.75.75,0,0,0-.17.3c0,.16-.13.61-.27,1.33l-.12.65h1c.06,0,.09,0,.09.13s0,0,0,.08l0,.1a.08.08,0,0,1-.08,0h-1l-.44,2.38c-.07.34-.13.69-.21,1a8.78,8.78,0,0,1-.31,1.1,3.06,3.06,0,0,1-.51,1,1,1,0,0,1-.74.38,1,1,0,0,1-.59-.19.57.57,0,0,1-.27-.5.61.61,0,0,1,.17-.43.5.5,0,0,1,.39-.18.43.43,0,0,1,.28.09.33.33,0,0,1,.11.26.52.52,0,0,1-.16.38A.47.47,0,0,1,34.56,231.44Z"/><path d="M40.2,226.21V226c.56,0,.84-.07.84-.22v-3.54a2,2,0,0,1-.88.16v-.23a1.71,1.71,0,0,0,1.26-.43h.13a.08.08,0,0,1,0,0v4c0,.15.28.22.84.22v.24Z"/><path d="M34.46,188.92a.67.67,0,0,0,.43.14c.23,0,.42-.26.57-.77.06-.25.22-1.06.5-2.45l.44-2.38h-.83c-.07,0-.11,0-.11-.13s.08-.22.13-.22h.87l.12-.64.1-.5c0-.14.07-.27.1-.39a2.57,2.57,0,0,1,.17-.41,1.5,1.5,0,0,1,.45-.52,1,1,0,0,1,.61-.21,1,1,0,0,1,.42.08.78.78,0,0,1,.33.24.59.59,0,0,1,.13.37.61.61,0,0,1-.17.42.5.5,0,0,1-.4.19.35.35,0,0,1-.26-.1.3.3,0,0,1-.11-.26.48.48,0,0,1,.14-.36.53.53,0,0,1,.36-.19.72.72,0,0,0-.44-.14.4.4,0,0,0-.29.14.75.75,0,0,0-.17.3c0,.16-.13.61-.27,1.33l-.12.65h1c.06,0,.09,0,.09.13l0,.08,0,.1a.08.08,0,0,1-.07,0h-1l-.44,2.38c-.07.34-.13.69-.21,1a8.78,8.78,0,0,1-.31,1.1,3.06,3.06,0,0,1-.51.95,1,1,0,0,1-.74.38,1,1,0,0,1-.59-.19.57.57,0,0,1-.27-.5.61.61,0,0,1,.17-.43.51.51,0,0,1,.39-.18.43.43,0,0,1,.28.09.33.33,0,0,1,.11.26.52.52,0,0,1-.16.38A.47.47,0,0,1,34.46,188.92Z"/><path d="M39.82,183.69v-.18a.09.09,0,0,1,0,0l1-1.16.4-.42c.09-.12.19-.25.29-.4a2.55,2.55,0,0,0,.23-.47,1.59,1.59,0,0,0,.08-.5,1.4,1.4,0,0,0-.11-.53.94.94,0,0,0-.3-.4.79.79,0,0,0-.49-.15.85.85,0,0,0-.53.18.87.87,0,0,0-.33.45h.07a.45.45,0,0,1,.27.1.37.37,0,0,1,.11.27.36.36,0,0,1-.11.26.4.4,0,0,1-.27.11.36.36,0,0,1-.26-.11.35.35,0,0,1-.1-.26,1.23,1.23,0,0,1,.09-.47,1.21,1.21,0,0,1,.28-.4,1.18,1.18,0,0,1,.4-.27,1.28,1.28,0,0,1,.48-.09,1.58,1.58,0,0,1,.72.16,1.23,1.23,0,0,1,.72,1.16,1.21,1.21,0,0,1-.13.56,2.11,2.11,0,0,1-.32.48c-.14.14-.31.31-.52.49l-.41.37-.77.72h1.45a.89.89,0,0,0,.34,0,1.45,1.45,0,0,0,.16-.62h.2l-.2,1.21Z"/><path d="M34.43,146.4a.7.7,0,0,0,.44.14c.23,0,.42-.26.57-.77.05-.24.22-1.06.49-2.45l.45-2.38h-.83c-.08,0-.11,0-.11-.13s.07-.22.13-.22h.87l.11-.64.11-.5a3.69,3.69,0,0,1,.1-.39,1.89,1.89,0,0,1,.17-.41,1.59,1.59,0,0,1,.44-.52,1,1,0,0,1,.61-.21,1,1,0,0,1,.42.08.68.68,0,0,1,.33.24.54.54,0,0,1,.13.37.64.64,0,0,1-.16.43.52.52,0,0,1-.4.18.35.35,0,0,1-.26-.1.3.3,0,0,1-.12-.25.53.53,0,0,1,.14-.37.58.58,0,0,1,.37-.19.77.77,0,0,0-.45-.14.4.4,0,0,0-.28.14.75.75,0,0,0-.17.3c0,.16-.13.61-.27,1.33l-.12.65h1c.06,0,.09,0,.09.13a.13.13,0,0,0,0,.08.3.3,0,0,1,0,.1.07.07,0,0,1-.07,0h-1l-.45,2.38c-.06.34-.13.69-.2,1.05a10.89,10.89,0,0,1-.31,1.1,3.3,3.3,0,0,1-.52.95.94.94,0,0,1-.74.38,1,1,0,0,1-.59-.19.59.59,0,0,1-.26-.5.6.6,0,0,1,.16-.43.52.52,0,0,1,.4-.18.45.45,0,0,1,.28.09.33.33,0,0,1,.11.26.57.57,0,0,1-.16.38A.51.51,0,0,1,34.43,146.4Z"/><path d="M40.1,140.65a.87.87,0,0,0,.42.33,1.4,1.4,0,0,0,.58.12.59.59,0,0,0,.56-.34,1.65,1.65,0,0,0,.16-.75,2.56,2.56,0,0,0,0-.39,2.06,2.06,0,0,0-.12-.35.67.67,0,0,0-.23-.27.65.65,0,0,0-.34-.1h-.46s-.06,0-.06-.05v-.06a.05.05,0,0,1,.06-.06l.37,0a.52.52,0,0,0,.4-.18,1,1,0,0,0,.22-.43,1.73,1.73,0,0,0,.08-.49.88.88,0,0,0-.15-.53.52.52,0,0,0-.46-.2,1.39,1.39,0,0,0-.5.09,1,1,0,0,0-.37.29h.05a.34.34,0,0,1,.25.11.35.35,0,0,1,.11.26.34.34,0,0,1-.11.24.34.34,0,0,1-.5,0,.34.34,0,0,1-.11-.24.8.8,0,0,1,.17-.51,1.06,1.06,0,0,1,.45-.33,1.36,1.36,0,0,1,.56-.11,1.65,1.65,0,0,1,.43.06,1.5,1.5,0,0,1,.41.18.83.83,0,0,1,.3.29.7.7,0,0,1,.12.4,1,1,0,0,1-.13.52,1.18,1.18,0,0,1-.35.42,1.61,1.61,0,0,1-.48.26A1.68,1.68,0,0,1,42,139a1.4,1.4,0,0,1,.42.42,1.12,1.12,0,0,1,.16.55,1.16,1.16,0,0,1-.21.68,1.29,1.29,0,0,1-.53.48,1.54,1.54,0,0,1-.7.17,1.77,1.77,0,0,1-.64-.12,1.41,1.41,0,0,1-.52-.37.84.84,0,0,1-.2-.58.33.33,0,0,1,.11-.27.36.36,0,0,1,.28-.11.33.33,0,0,1,.2,0,.38.38,0,0,1,.14.14.41.41,0,0,1,.05.19.38.38,0,0,1-.12.28.34.34,0,0,1-.27.12Z"/><path d="M34.39,102.46a.62.62,0,0,0,.43.14c.23,0,.42-.25.57-.77.06-.24.22-1.06.5-2.45L36.33,97H35.5c-.07,0-.11,0-.11-.13s.08-.22.13-.22h.87l.12-.63c0-.2.07-.37.1-.51s.07-.27.1-.39a2.5,2.5,0,0,1,.17-.4,1.54,1.54,0,0,1,.45-.53,1,1,0,0,1,.61-.21,1.25,1.25,0,0,1,.42.08,1,1,0,0,1,.33.24.61.61,0,0,1,.12.37.62.62,0,0,1-.16.43.52.52,0,0,1-.4.18.39.39,0,0,1-.26-.09.31.31,0,0,1-.11-.26.5.5,0,0,1,.14-.37.49.49,0,0,1,.36-.18.66.66,0,0,0-.44-.14.39.39,0,0,0-.29.13.75.75,0,0,0-.17.3c0,.16-.13.61-.27,1.34l-.12.64h1c.06,0,.09,0,.09.13a.45.45,0,0,1,0,.08l0,.1a.08.08,0,0,1-.08,0H37l-.44,2.38c-.07.34-.13.69-.21,1.05a8.33,8.33,0,0,1-.31,1.1,3,3,0,0,1-.51,1,1,1,0,0,1-.74.38,1,1,0,0,1-.59-.19.57.57,0,0,1-.27-.5.63.63,0,0,1,.17-.43.5.5,0,0,1,.39-.18.43.43,0,0,1,.28.09.35.35,0,0,1,.11.26.52.52,0,0,1-.16.38A.44.44,0,0,1,34.39,102.46Z"/><path d="M39.82,95.88h1.6V93.49Zm-.22.24v-.24l2.08-3.12a.09.09,0,0,1,.07,0h.1a.07.07,0,0,1,.08.08v3.07h.65v.24h-.65v.65c0,.1.06.16.2.18a2,2,0,0,0,.45,0v.24H40.72V97a2.19,2.19,0,0,0,.46,0c.13,0,.2-.08.2-.18v-.65Z"/></g></svg>