<svg xmlns="http://www.w3.org/2000/svg" viewBox="0 0 396.85 510.24"><defs><style>.cls-1,.cls-2{fill:#fff;}.cls-1{stroke:#9d9d9c;}.cls-1,.cls-2,.cls-3{stroke-miterlimit:10;}.cls-2,.cls-3{stroke:#1d1d1b;}.cls-3{fill:none;}.cls-4,.cls-5{fill:#1d1d1b;}.cls-5{font-size:23px;font-family:MyriadPro-Regular, Myriad Pro;}</style></defs><g id="Structure"><line class="cls-1" x1="385.47" y1="28.35" x2="374.14" y2="40.33"/><line class="cls-1" x1="385.47" y1="49.19" x2="374.14" y2="61.18"/><line class="cls-1" x1="385.47" y1="38.77" x2="374.14" y2="50.76"/><line class="cls-1" x1="385.47" y1="59.62" x2="374.14" y2="71.6"/><line class="cls-1" x1="385.47" y1="70.04" x2="374.14" y2="82.03"/><line class="cls-1" x1="385.47" y1="90.89" x2="374.14" y2="102.88"/><line class="cls-1" x1="385.47" y1="80.47" x2="374.14" y2="92.45"/><line class="cls-1" x1="385.47" y1="101.31" x2="374.14" y2="113.3"/><line class="cls-1" x1="385.47" y1="111.74" x2="374.14" y2="123.72"/><line class="cls-1" x1="385.47" y1="132.59" x2="374.14" y2="144.57"/><line class="cls-1" x1="385.47" y1="122.16" x2="374.14" y2="134.15"/><line class="cls-1" x1="385.47" y1="143.01" x2="374.14" y2="155"/><line class="cls-1" x1="385.47" y1="153.43" x2="374.14" y2="165.42"/><line class="cls-1" x1="385.47" y1="174.28" x2="374.14" y2="186.27"/><line class="cls-1" x1="385.47" y1="163.86" x2="374.14" y2="175.84"/><line class="cls-1" x1="385.47" y1="184.7" x2="374.14" y2="196.69"/><line class="cls-1" x1="385.47" y1="195.13" x2="374.14" y2="207.12"/><line class="cls-1" x1="385.47" y1="215.98" x2="374.14" y2="227.96"/><line class="cls-1" x1="385.47" y1="205.55" x2="374.14" y2="217.54"/><line class="cls-1" x1="385.47" y1="226.4" x2="374.14" y2="238.39"/><line class="cls-1" x1="385.47" y1="236.82" x2="374.14" y2="248.81"/><line class="cls-1" x1="385.47" y1="257.67" x2="374.14" y2="269.66"/><line class="cls-1" x1="385.47" y1="247.25" x2="374.14" y2="259.23"/><line class="cls-1" x1="385.47" y1="268.1" x2="374.14" y2="280.08"/><line class="cls-1" x1="385.47" y1="278.52" x2="374.14" y2="290.51"/><line class="cls-1" x1="385.47" y1="299.37" x2="374.14" y2="311.35"/><line class="cls-1" x1="385.47" y1="288.94" x2="374.14" y2="300.93"/><line class="cls-1" x1="385.47" y1="309.79" x2="374.14" y2="321.78"/><line class="cls-1" x1="385.47" y1="320.22" x2="374.14" y2="332.2"/><line class="cls-1" x1="385.47" y1="341.06" x2="374.14" y2="353.05"/><line class="cls-1" x1="385.47" y1="330.64" x2="374.14" y2="342.63"/><line class="cls-1" x1="385.47" y1="351.49" x2="374.14" y2="363.47"/><line class="cls-1" x1="23.84" y1="472.92" x2="12.51" y2="460.94"/><line class="cls-1" x1="23.84" y1="452.08" x2="12.51" y2="440.09"/><line class="cls-1" x1="23.84" y1="462.5" x2="12.51" y2="450.51"/><line class="cls-1" x1="23.84" y1="441.65" x2="12.51" y2="429.67"/><line class="cls-1" x1="23.84" y1="431.23" x2="12.51" y2="419.24"/><line class="cls-1" x1="23.84" y1="410.38" x2="12.51" y2="398.39"/><line class="cls-1" x1="23.84" y1="420.81" x2="12.51" y2="408.82"/><line class="cls-1" x1="23.84" y1="399.96" x2="12.51" y2="387.97"/><line class="cls-1" x1="23.84" y1="389.53" x2="12.51" y2="377.55"/><line class="cls-1" x1="23.84" y1="368.69" x2="12.51" y2="356.7"/><line class="cls-1" x1="23.84" y1="379.11" x2="12.51" y2="367.12"/><line class="cls-1" x1="23.84" y1="358.26" x2="12.51" y2="346.27"/><line class="cls-1" x1="23.84" y1="347.84" x2="12.51" y2="335.85"/><line class="cls-1" x1="23.84" y1="326.99" x2="12.51" y2="315"/><line class="cls-1" x1="23.84" y1="337.41" x2="12.51" y2="325.43"/><line class="cls-1" x1="23.84" y1="316.57" x2="12.51" y2="304.58"/><line class="cls-1" x1="23.84" y1="306.14" x2="12.51" y2="294.16"/><line class="cls-1" x1="23.84" y1="285.29" x2="12.51" y2="273.31"/><line class="cls-1" x1="23.84" y1="295.72" x2="12.51" y2="283.73"/><line class="cls-1" x1="23.84" y1="274.87" x2="12.51" y2="262.88"/><line class="cls-1" x1="23.84" y1="264.45" x2="12.51" y2="252.46"/><line class="cls-1" x1="23.84" y1="243.6" x2="12.51" y2="231.61"/><line class="cls-1" x1="23.84" y1="254.02" x2="12.51" y2="242.04"/><line class="cls-1" x1="23.84" y1="233.18" x2="12.51" y2="221.19"/><line class="cls-1" x1="23.84" y1="222.75" x2="12.51" y2="210.76"/><line class="cls-1" x1="23.84" y1="201.9" x2="12.51" y2="189.92"/><line class="cls-1" x1="23.84" y1="212.33" x2="12.51" y2="200.34"/><line class="cls-1" x1="23.84" y1="191.48" x2="12.51" y2="179.49"/><line class="cls-1" x1="23.84" y1="181.06" x2="12.51" y2="169.07"/><line class="cls-1" x1="23.84" y1="160.21" x2="12.51" y2="148.22"/><line class="cls-1" x1="23.84" y1="170.63" x2="12.51" y2="158.65"/><line class="cls-1" x1="23.84" y1="149.78" x2="12.51" y2="137.8"/></g><g id="Structure_Deformed" data-name="Structure Deformed"><polygon class="cls-2" points="353.44 292.02 52.15 394.07 52.15 189.67 353.44 87.62 353.44 292.02"/></g><g id="Boundary_Conditions_Deformed" data-name="Boundary Conditions Deformed"><polyline class="cls-2" points="52.15 189.67 37.09 175.07 37.09 204.27 52.15 189.67"/><ellipse class="cls-2" cx="32.72" cy="178.24" rx="4.37" ry="4.24"/><ellipse class="cls-2" cx="32.72" cy="200.03" rx="4.37" ry="4.24"/><polyline class="cls-2" points="52.15 394.6 37.09 380 37.09 409.2 52.15 394.6"/><ellipse class="cls-2" cx="32.72" cy="383.17" rx="4.37" ry="4.24"/><ellipse class="cls-2" cx="32.72" cy="404.96" rx="4.37" ry="4.24"/><polyline class="cls-2" points="52.15 292.4 37.09 277.8 37.09 307 52.15 292.4"/><ellipse class="cls-2" cx="32.72" cy="280.97" rx="4.37" ry="4.24"/><ellipse class="cls-2" cx="32.72" cy="302.77" rx="4.37" ry="4.24"/><polyline class="cls-2" points="353.44 87.62 368.5 102.22 368.5 73.02 353.44 87.62"/><polyline class="cls-2" points="353.44 291.48 368.5 306.08 368.5 276.88 353.44 291.48"/><polyline class="cls-2" points="353.44 189.82 368.5 204.42 368.5 175.22 353.44 189.82"/><line class="cls-2" x1="368.5" y1="28.35" x2="368.5" y2="368.5"/><line class="cls-2" x1="28.35" y1="130.39" x2="28.35" y2="470.55"/><line class="cls-3" x1="52.15" y1="180.58" x2="52.15" y2="169.85"/><polygon class="cls-4" points="54.33 179.09 52.16 187.22 49.98 179.09 54.33 179.09"/><text class="cls-5" transform="translate(192.61 258.1)">?</text></g></svg>