<svg id="Lager_1" data-name="Lager 1" xmlns="http://www.w3.org/2000/svg" viewBox="0 0 566.93 266.67"><defs><style>.cls-1,.cls-10,.cls-12,.cls-5,.cls-7,.cls-8,.cls-9{fill:none;stroke-linejoin:round;stroke-width:0.5px;}.cls-1,.cls-10,.cls-12,.cls-7,.cls-8,.cls-9{stroke:#262626;stroke-linecap:square;}.cls-2{font-size:8.47px;}.cls-11,.cls-2,.cls-3,.cls-6{fill:#262626;font-family:ArialMT, Arial;}.cls-3,.cls-4{font-size:9.31px;}.cls-4{font-family:Arial-BoldMT, Arial;font-weight:700;}.cls-5{stroke:#0e72ba;}.cls-6{font-size:5.42px;}.cls-7{stroke-dasharray:2.99 2.99;}.cls-8{stroke-dasharray:2.99 2.99;}.cls-9{stroke-dasharray:2.97 2.97;}.cls-10{stroke-dasharray:3 3;}.cls-11{font-size:5.69px;}.cls-12{stroke-dasharray:3;}</style></defs><line class="cls-1" x1="46.35" y1="233.02" x2="321.91" y2="233.02"/><line class="cls-1" x1="46.35" y1="20.95" x2="321.91" y2="20.95"/><line class="cls-1" x1="70.09" y1="233.02" x2="70.09" y2="230.26"/><line class="cls-1" x1="95.14" y1="233.02" x2="95.14" y2="230.26"/><line class="cls-1" x1="120.19" y1="233.02" x2="120.19" y2="230.26"/><line class="cls-1" x1="145.24" y1="233.02" x2="145.24" y2="230.26"/><line class="cls-1" x1="170.29" y1="233.02" x2="170.29" y2="230.26"/><line class="cls-1" x1="195.34" y1="233.02" x2="195.34" y2="230.26"/><line class="cls-1" x1="220.4" y1="233.02" x2="220.4" y2="230.26"/><line class="cls-1" x1="245.45" y1="233.02" x2="245.45" y2="230.26"/><line class="cls-1" x1="270.5" y1="233.02" x2="270.5" y2="230.26"/><line class="cls-1" x1="295.55" y1="233.02" x2="295.55" y2="230.26"/><line class="cls-1" x1="320.6" y1="233.02" x2="320.6" y2="230.26"/><line class="cls-1" x1="70.09" y1="20.95" x2="70.09" y2="23.71"/><line class="cls-1" x1="95.14" y1="20.95" x2="95.14" y2="23.71"/><line class="cls-1" x1="120.19" y1="20.95" x2="120.19" y2="23.71"/><line class="cls-1" x1="145.24" y1="20.95" x2="145.24" y2="23.71"/><line class="cls-1" x1="170.29" y1="20.95" x2="170.29" y2="23.71"/><line class="cls-1" x1="195.34" y1="20.95" x2="195.34" y2="23.71"/><line class="cls-1" x1="220.4" y1="20.95" x2="220.4" y2="23.71"/><line class="cls-1" x1="245.45" y1="20.95" x2="245.45" y2="23.71"/><line class="cls-1" x1="270.5" y1="20.95" x2="270.5" y2="23.71"/><line class="cls-1" x1="295.55" y1="20.95" x2="295.55" y2="23.71"/><line class="cls-1" x1="320.6" y1="20.95" x2="320.6" y2="23.71"/><text class="cls-2" transform="translate(65.33 245.3)">20</text><text class="cls-2" transform="translate(90.38 245.3)">40</text><text class="cls-2" transform="translate(115.43 245.3)">60</text><text class="cls-2" transform="translate(140.48 245.3)">80</text><text class="cls-2" transform="translate(162.99 245.3)">100</text><text class="cls-2" transform="translate(188.04 245.3)">120</text><text class="cls-2" transform="translate(213.09 245.3)">140</text><text class="cls-2" transform="translate(238.15 245.3)">160</text><text class="cls-2" transform="translate(263.2 245.3)">180</text><text class="cls-2" transform="translate(288.25 245.3)">200</text><text class="cls-2" transform="translate(313.3 245.3)">220</text><text class="cls-3" transform="translate(167.3 257.57)">Iteration</text><line class="cls-1" x1="46.35" y1="233.02" x2="46.35" y2="20.95"/><line class="cls-1" x1="321.91" y1="233.02" x2="321.91" y2="20.95"/><line class="cls-1" x1="46.35" y1="232.06" x2="49.11" y2="232.06"/><line class="cls-1" x1="46.35" y1="212.04" x2="49.11" y2="212.04"/><line class="cls-1" x1="46.35" y1="192.02" x2="49.11" y2="192.02"/><line class="cls-1" x1="46.35" y1="172.01" x2="49.11" y2="172.01"/><line class="cls-1" x1="46.35" y1="151.99" x2="49.11" y2="151.99"/><line class="cls-1" x1="46.35" y1="131.97" x2="49.11" y2="131.97"/><line class="cls-1" x1="46.35" y1="111.95" x2="49.11" y2="111.95"/><line class="cls-1" x1="46.35" y1="91.93" x2="49.11" y2="91.93"/><line class="cls-1" x1="46.35" y1="71.91" x2="49.11" y2="71.91"/><line class="cls-1" x1="46.35" y1="51.89" x2="49.11" y2="51.89"/><line class="cls-1" x1="46.35" y1="31.87" x2="49.11" y2="31.87"/><line class="cls-1" x1="321.91" y1="232.06" x2="319.15" y2="232.06"/><line class="cls-1" x1="321.91" y1="212.04" x2="319.15" y2="212.04"/><line class="cls-1" x1="321.91" y1="192.02" x2="319.15" y2="192.02"/><line class="cls-1" x1="321.91" y1="172.01" x2="319.15" y2="172.01"/><line class="cls-1" x1="321.91" y1="151.99" x2="319.15" y2="151.99"/><line class="cls-1" x1="321.91" y1="131.97" x2="319.15" y2="131.97"/><line class="cls-1" x1="321.91" y1="111.95" x2="319.15" y2="111.95"/><line class="cls-1" x1="321.91" y1="91.93" x2="319.15" y2="91.93"/><line class="cls-1" x1="321.91" y1="71.91" x2="319.15" y2="71.91"/><line class="cls-1" x1="321.91" y1="51.89" x2="319.15" y2="51.89"/><line class="cls-1" x1="321.91" y1="31.87" x2="319.15" y2="31.87"/><text class="cls-2" transform="translate(37.88 235.56)">1</text><text class="cls-2" transform="translate(37.88 215.54)">2</text><text class="cls-2" transform="translate(37.88 195.52)">3</text><text class="cls-2" transform="translate(37.88 175.5)">4</text><text class="cls-2" transform="translate(37.88 155.48)">5</text><text class="cls-2" transform="translate(37.88 135.46)">6</text><text class="cls-2" transform="translate(37.88 115.44)">7</text><text class="cls-2" transform="translate(37.88 95.42)">8</text><text class="cls-2" transform="translate(37.88 75.4)">9</text><text class="cls-2" transform="translate(33.44 55.38)">10</text><text class="cls-2" transform="translate(33.44 35.36)">11</text><text class="cls-3" transform="translate(28.36 151.75) rotate(-90)">Compliance</text><text class="cls-4" transform="translate(126.99 16.67)">Compliance over iteration</text><polyline class="cls-5" points="46.32 231.95 47.55 226.54 48.8 211.3 50.05 191.11 51.3 173.71 52.55 159.51 53.81 146.45 55.06 132.25 56.31 117.05 57.56 102.14 58.82 89.3 60.07 75.23 61.32 67.03 62.58 62.08 63.83 57.94 65.08 54.5 66.33 51.49 67.58 48.94 68.84 46.77 70.09 45.26 71.34 44.28 72.59 43.66 73.85 43.27 75.1 42.89 76.35 42.6 77.61 42.35 78.86 42.12 80.11 41.9 81.36 41.7 82.62 41.49 83.87 41.29 85.12 41.09 86.37 40.95 87.63 40.81 88.88 40.67 90.13 40.55 91.38 40.44 92.64 40.33 93.89 40.21 95.14 40.1 96.39 39.99 97.65 39.89 98.9 39.83 100.15 39.77 101.4 39.73 102.66 39.7 103.91 39.67 105.16 39.65 106.41 39.62 107.67 39.6 108.92 39.59 110.17 39.58 111.42 39.57 112.68 39.56 113.93 39.56 115.18 39.56 116.43 39.55 117.69 39.55 118.94 39.55 120.19 39.55 121.44 39.54 122.7 39.54 123.95 39.54 125.2 39.54 126.45 39.54 127.71 39.54 128.96 39.53 130.21 39.53 131.47 39.53 132.72 39.52 133.97 39.52 135.22 39.51 136.47 39.48 137.73 39.43 138.98 39.38 140.23 39.36 141.49 39.34 142.74 39.34 143.99 39.33 145.24 39.33 146.5 39.33 147.75 39.33 149 39.33 150.25 39.33 151.5 39.33 152.76 39.33 154.01 39.33 155.26 39.33 156.52 39.33 157.77 39.33 159.02 39.33 160.27 39.32 161.53 39.32 162.78 39.32 164.03 39.32 165.28 39.32 166.54 39.31 167.79 39.31 169.04 39.31 170.29 39.31 171.55 39.31 172.8 39.31 174.05 39.3 175.3 39.3 176.56 39.3 177.81 39.3 179.06 39.3 180.31 39.3 181.57 39.3 182.82 39.3 184.07 39.3 185.32 39.3 186.58 39.3 187.83 39.3 189.08 39.3 190.33 39.3 191.59 39.3 192.84 39.3 194.09 39.3 195.34 39.3 196.6 39.29 197.85 39.29 199.1 39.29 200.35 39.29 201.61 39.29 202.86 39.29 204.11 39.29 205.37 39.28 206.62 39.28 207.87 39.28 209.12 39.28 210.38 39.28 211.63 39.28 212.88 39.28 214.13 39.28 215.38 39.28 216.64 39.28 217.89 39.28 219.14 39.28 220.4 39.28 221.65 39.28 222.9 39.28 224.15 39.28 225.41 39.28 226.66 39.28 227.91 39.28 229.16 39.28 230.41 39.28 231.67 39.28 232.92 39.28 234.17 39.28 235.43 39.28 236.68 39.28 237.93 39.28 239.18 39.28 240.44 39.28 241.69 39.28 242.94 39.28 244.19 39.28 245.45 39.28 246.7 39.28 247.95 39.28 249.2 39.28 250.46 39.28 251.71 39.28 252.96 39.28 254.21 39.28 255.47 39.28 256.72 39.28 257.97 39.28 259.22 39.28 260.48 39.28 261.73 39.28 262.98 39.28 264.23 39.28 265.49 39.28 266.74 39.28 267.99 39.28 269.24 39.28 270.5 39.28 271.75 39.28 273 39.28 274.25 39.28 275.51 39.28 276.76 39.28 278.01 39.28 279.26 39.28 280.52 39.28 281.77 39.28 283.02 39.28 284.27 39.28 285.53 39.28 286.78 39.28 288.03 39.28 289.29 39.28 290.54 39.28 291.79 39.28 293.04 39.28 294.3 39.28 295.55 39.28 296.8 39.28"/><line class="cls-1" x1="388.29" y1="182.11" x2="546.61" y2="182.11"/><line class="cls-1" x1="388.29" y1="42.67" x2="546.61" y2="42.67"/><line class="cls-1" x1="388.29" y1="182.11" x2="388.29" y2="180.43"/><line class="cls-1" x1="418.73" y1="182.11" x2="418.73" y2="180.43"/><line class="cls-1" x1="449.18" y1="182.11" x2="449.18" y2="180.43"/><line class="cls-1" x1="479.63" y1="182.11" x2="479.63" y2="180.43"/><line class="cls-1" x1="510.07" y1="182.11" x2="510.07" y2="180.43"/><line class="cls-1" x1="540.52" y1="182.11" x2="540.52" y2="180.43"/><line class="cls-1" x1="388.29" y1="42.67" x2="388.29" y2="44.35"/><line class="cls-1" x1="418.73" y1="42.67" x2="418.73" y2="44.35"/><line class="cls-1" x1="449.18" y1="42.67" x2="449.18" y2="44.35"/><line class="cls-1" x1="479.63" y1="42.67" x2="479.63" y2="44.35"/><line class="cls-1" x1="510.07" y1="42.67" x2="510.07" y2="44.35"/><line class="cls-1" x1="540.52" y1="42.67" x2="540.52" y2="44.35"/><text class="cls-6" transform="translate(383.88 189.97) scale(0.94 1)">175</text><text class="cls-6" transform="translate(414.33 189.97) scale(0.94 1)">180</text><text class="cls-6" transform="translate(444.77 189.97) scale(0.94 1)">185</text><text class="cls-6" transform="translate(475.22 189.97) scale(0.94 1)">190</text><text class="cls-6" transform="translate(505.67 189.97) scale(0.94 1)">195</text><text class="cls-6" transform="translate(536.12 189.97) scale(0.94 1)">200</text><line class="cls-1" x1="388.29" y1="179.07" x2="389.87" y2="179.07"/><line class="cls-1" x1="388.29" y1="137.59" x2="389.87" y2="137.59"/><line class="cls-1" x1="388.29" y1="96.11" x2="389.87" y2="96.11"/><line class="cls-1" x1="388.29" y1="54.63" x2="389.87" y2="54.63"/><line class="cls-1" x1="546.61" y1="179.07" x2="545.03" y2="179.07"/><line class="cls-1" x1="546.61" y1="137.59" x2="545.03" y2="137.59"/><line class="cls-1" x1="546.61" y1="96.11" x2="545.03" y2="96.11"/><line class="cls-1" x1="546.61" y1="54.63" x2="545.03" y2="54.63"/><line class="cls-1" x1="258.11" y1="54.89" x2="258.11" y2="23.66"/><line class="cls-1" x1="295.71" y1="54.89" x2="297.05" y2="55.57"/><line class="cls-7" x1="299.71" y1="56.92" x2="367.63" y2="91.36"/><line class="cls-1" x1="368.97" y1="92.03" x2="370.31" y2="92.7"/><line class="cls-1" x1="258.11" y1="23.66" x2="295.71" y2="23.66"/><line class="cls-1" x1="388.29" y1="42.67" x2="386.8" y2="42.45"/><line class="cls-8" x1="383.84" y1="42.02" x2="261.07" y2="24.09"/><line class="cls-1" x1="259.6" y1="23.88" x2="258.11" y2="23.66"/><line class="cls-1" x1="388.29" y1="182.11" x2="388.29" y2="42.67"/><line class="cls-1" x1="258.11" y1="54.89" x2="259.18" y2="55.94"/><line class="cls-9" x1="261.31" y1="58.02" x2="379.38" y2="173.41"/><line class="cls-1" x1="380.45" y1="174.45" x2="381.52" y2="175.5"/><line class="cls-1" x1="295.71" y1="54.89" x2="258.11" y2="54.89"/><line class="cls-1" x1="546.61" y1="182.11" x2="546.61" y2="42.67"/><line class="cls-1" x1="295.71" y1="23.66" x2="295.71" y2="54.89"/><line class="cls-1" x1="546.61" y1="42.67" x2="545.12" y2="42.56"/><line class="cls-10" x1="542.13" y1="42.33" x2="298.7" y2="23.89"/><line class="cls-1" x1="297.21" y1="23.77" x2="295.71" y2="23.66"/><polyline class="cls-5" points="388.29 170.34 394.38 168.02 400.46 174.62 406.56 181.95 412.64 182.11 418.73 177.26 424.82 178.21 430.91 181.62 437 177.57 443.09 171.5 449.18 165.14 455.27 162.17 461.36 159.81 467.45 157.45 473.54 158.96 479.63 156.06 485.72 123.74 491.81 109.29 497.9 102.29 503.99 93.92 510.07 90.3 516.16 89 522.25 84.85 528.34 82.33 534.43 58.16 540.52 48.41 546.61 42.67"/><text class="cls-6" transform="translate(356.34 181.31) scale(0.94 1)">10.63011685</text><text class="cls-6" transform="translate(356.89 139.83) scale(0.94 1)">10.63011690</text><text class="cls-6" transform="translate(356.34 98.34) scale(0.94 1)">10.63011695</text><text class="cls-11" transform="translate(357.45 56.77) scale(0.9 1)">10.63011700</text><line class="cls-12" x1="384.43" y1="99.68" x2="388.29" y2="101.59"/></svg>