<svg xmlns="http://www.w3.org/2000/svg" viewBox="0 0 396.85 396.85"><defs><style>.cls-1,.cls-2{fill:#fff;stroke-miterlimit:10;}.cls-1{stroke:#1d1d1b;}.cls-2{stroke:#9d9d9c;}.cls-3{font-size:23px;fill:#1d1d1b;font-family:MyriadPro-Regular, Myriad Pro;}</style></defs><g id="Structure"><rect class="cls-1" x="52.15" y="87.62" width="301.29" height="204.4"/><line class="cls-2" x1="383.69" y1="27.56" x2="372.36" y2="39.55"/><line class="cls-2" x1="383.69" y1="48.41" x2="372.36" y2="60.4"/><line class="cls-2" x1="383.69" y1="37.99" x2="372.36" y2="49.98"/><line class="cls-2" x1="383.69" y1="58.84" x2="372.36" y2="70.82"/><line class="cls-2" x1="383.69" y1="69.26" x2="372.36" y2="81.25"/><line class="cls-2" x1="383.69" y1="90.11" x2="372.36" y2="102.1"/><line class="cls-2" x1="383.69" y1="79.68" x2="372.36" y2="91.67"/><line class="cls-2" x1="383.69" y1="100.53" x2="372.36" y2="112.52"/><line class="cls-2" x1="383.69" y1="110.96" x2="372.36" y2="122.94"/><line class="cls-2" x1="383.69" y1="131.8" x2="372.36" y2="143.79"/><line class="cls-2" x1="383.69" y1="121.38" x2="372.36" y2="133.37"/><line class="cls-2" x1="383.69" y1="142.23" x2="372.36" y2="154.21"/><line class="cls-2" x1="383.69" y1="152.65" x2="372.36" y2="164.64"/><line class="cls-2" x1="383.69" y1="173.5" x2="372.36" y2="185.49"/><line class="cls-2" x1="383.69" y1="163.08" x2="372.36" y2="175.06"/><line class="cls-2" x1="383.69" y1="183.92" x2="372.36" y2="195.91"/><line class="cls-2" x1="383.69" y1="194.35" x2="372.36" y2="206.33"/><line class="cls-2" x1="383.69" y1="215.19" x2="372.36" y2="227.18"/><line class="cls-2" x1="383.69" y1="204.77" x2="372.36" y2="216.76"/><line class="cls-2" x1="383.69" y1="225.62" x2="372.36" y2="237.61"/><line class="cls-2" x1="383.69" y1="236.04" x2="372.36" y2="248.03"/><line class="cls-2" x1="383.69" y1="256.89" x2="372.36" y2="268.88"/><line class="cls-2" x1="383.69" y1="246.47" x2="372.36" y2="258.45"/><line class="cls-2" x1="383.69" y1="267.31" x2="372.36" y2="279.3"/><line class="cls-2" x1="383.69" y1="277.74" x2="372.36" y2="289.73"/><line class="cls-2" x1="383.69" y1="298.59" x2="372.36" y2="310.57"/><line class="cls-2" x1="383.69" y1="288.16" x2="372.36" y2="300.15"/><line class="cls-2" x1="383.69" y1="309.01" x2="372.36" y2="321"/><line class="cls-2" x1="383.69" y1="319.43" x2="372.36" y2="331.42"/><line class="cls-2" x1="383.69" y1="340.28" x2="372.36" y2="352.27"/><line class="cls-2" x1="383.69" y1="329.86" x2="372.36" y2="341.84"/><line class="cls-2" x1="383.69" y1="350.71" x2="372.36" y2="362.69"/><line class="cls-2" x1="22.67" y1="30.86" x2="11.33" y2="42.85"/><line class="cls-2" x1="22.67" y1="51.71" x2="11.33" y2="63.7"/><line class="cls-2" x1="22.67" y1="41.29" x2="11.33" y2="53.27"/><line class="cls-2" x1="22.67" y1="62.13" x2="11.33" y2="74.12"/><line class="cls-2" x1="22.67" y1="72.56" x2="11.33" y2="84.54"/><line class="cls-2" x1="22.67" y1="93.4" x2="11.33" y2="105.39"/><line class="cls-2" x1="22.67" y1="82.98" x2="11.33" y2="94.97"/><line class="cls-2" x1="22.67" y1="103.83" x2="11.33" y2="115.82"/><line class="cls-2" x1="22.67" y1="114.25" x2="11.33" y2="126.24"/><line class="cls-2" x1="22.67" y1="135.1" x2="11.33" y2="147.09"/><line class="cls-2" x1="22.67" y1="124.68" x2="11.33" y2="136.66"/><line class="cls-2" x1="22.67" y1="145.52" x2="11.33" y2="157.51"/><line class="cls-2" x1="22.67" y1="155.95" x2="11.33" y2="167.94"/><line class="cls-2" x1="22.67" y1="176.8" x2="11.33" y2="188.78"/><line class="cls-2" x1="22.67" y1="166.37" x2="11.33" y2="178.36"/><line class="cls-2" x1="22.67" y1="187.22" x2="11.33" y2="199.21"/><line class="cls-2" x1="22.67" y1="197.64" x2="11.33" y2="209.63"/><line class="cls-2" x1="22.67" y1="218.49" x2="11.33" y2="230.48"/><line class="cls-2" x1="22.67" y1="208.07" x2="11.33" y2="220.05"/><line class="cls-2" x1="22.67" y1="228.92" x2="11.33" y2="240.9"/><line class="cls-2" x1="22.67" y1="239.34" x2="11.33" y2="251.33"/><line class="cls-2" x1="22.67" y1="260.19" x2="11.33" y2="272.17"/><line class="cls-2" x1="22.67" y1="249.76" x2="11.33" y2="261.75"/><line class="cls-2" x1="22.67" y1="270.61" x2="11.33" y2="282.6"/><line class="cls-2" x1="22.67" y1="281.03" x2="11.33" y2="293.02"/><line class="cls-2" x1="22.67" y1="301.88" x2="11.33" y2="313.87"/><line class="cls-2" x1="22.67" y1="291.46" x2="11.33" y2="303.45"/><line class="cls-2" x1="22.67" y1="312.31" x2="11.33" y2="324.29"/><line class="cls-2" x1="22.67" y1="322.73" x2="11.33" y2="334.72"/><line class="cls-2" x1="22.67" y1="343.58" x2="11.33" y2="355.56"/><line class="cls-2" x1="22.67" y1="333.15" x2="11.33" y2="345.14"/><line class="cls-2" x1="22.67" y1="354" x2="11.33" y2="365.99"/></g><g id="Boundary_Conditions" data-name="Boundary Conditions"><polyline class="cls-1" points="52.15 87.62 37.09 73.02 37.09 102.22 52.15 87.62"/><ellipse class="cls-1" cx="32.72" cy="76.19" rx="4.37" ry="4.24"/><ellipse class="cls-1" cx="32.72" cy="97.99" rx="4.37" ry="4.24"/><polyline class="cls-1" points="52.15 292.55 37.09 277.95 37.09 307.15 52.15 292.55"/><ellipse class="cls-1" cx="32.72" cy="281.12" rx="4.37" ry="4.24"/><ellipse class="cls-1" cx="32.72" cy="302.92" rx="4.37" ry="4.24"/><polyline class="cls-1" points="52.15 190.36 37.09 175.76 37.09 204.96 52.15 190.36"/><ellipse class="cls-1" cx="32.72" cy="178.92" rx="4.37" ry="4.24"/><ellipse class="cls-1" cx="32.72" cy="200.72" rx="4.37" ry="4.24"/><polyline class="cls-1" points="353.44 87.62 368.5 102.22 368.5 73.02 353.44 87.62"/><polyline class="cls-1" points="353.44 291.48 368.5 306.08 368.5 276.88 353.44 291.48"/><polyline class="cls-1" points="353.44 189.82 368.5 204.42 368.5 175.22 353.44 189.82"/><line class="cls-1" x1="368.5" y1="28.35" x2="368.5" y2="368.5"/><line class="cls-1" x1="28.35" y1="28.35" x2="28.35" y2="368.5"/></g><g id="Boundary_Conditions_Deformed" data-name="Boundary Conditions Deformed"><text class="cls-3" transform="translate(185.08 193.08)">?</text></g></svg>